<svg width="89.0482px" height="89.0482px" viewBox="0 0 89.0482 89.0482" xmlns="http://www.w3.org/2000/svg"><defs><style>.a{fill:#7bd3f7;}.b,.g{fill:#231f20;}.b,.c,.d,.f,.h,.i{fill-rule:evenodd;}.c{fill:#fffcd5;}.d{fill:#aea9d4;}.e,.f{fill:#f9ddd1;}.h{fill:#fff;}.i{fill:#fff200;}</style></defs><circle class="a" cx="44.5241" cy="44.524" r="43.524"/><path class="b" d="M44.5241,0a44.5249,44.5249,0,1,1-31.483,13.041A44.3855,44.3855,0,0,1,44.5241,0ZM74.5932,14.455A42.5246,42.5246,0,1,0,87.048,44.524,42.3916,42.3916,0,0,0,74.5932,14.455Z"/><path class="c" d="M22.0244,59.8949C17.157,60.58,6.444,54.6882,16.08,46.9607c-3.4044-1-11.897-5.8873-1.3164-8.5592,13.928-3.5178,10.5545-14.8921,16.2014-18.9386,2.592-1.8575,7.2706-2.7861,13.5207-.2585,6.25-2.5276,11.006-1.599,13.5986.2585C63.7305,23.51,60.3573,34.8837,74.285,38.4015c10.5806,2.6719,2.088,7.56-1.3161,8.5592,9.6355,7.7275-1.0777,13.619-5.9448,12.9342C71.2568,70.3085,17.9306,70.685,22.0244,59.8949Z"/><path class="b" d="M20.7865,60.9327a12.6168,12.6168,0,0,1-5.8238-1.93,8.8961,8.8961,0,0,1-2.9636-2.9589,5.6875,5.6875,0,0,1-.6528-4.2292,9.3618,9.3618,0,0,1,2.8261-4.5051,14.6644,14.6644,0,0,1-4.0771-2.5906A4.6446,4.6446,0,0,1,8.697,42.4723a2.8269,2.8269,0,0,1,.826-2.6906c.8465-.8842,2.4185-1.6977,4.9981-2.3491C22.8274,35.3347,24.61,30.22,26.1564,25.7805c.9961-2.8587,1.9052-5.4672,4.2262-7.13a11.6329,11.6329,0,0,1,6.5928-1.9839,19.8183,19.8183,0,0,1,7.51,1.4658,19.92,19.92,0,0,1,7.5438-1.4658A11.734,11.734,0,0,1,58.6659,18.65c2.3213,1.6634,3.23,4.2716,4.2259,7.13,1.5465,4.4393,3.329,9.5542,11.6353,11.6521,2.58.6514,4.1516,1.4652,4.9981,2.3491a2.8276,2.8276,0,0,1,.826,2.6906,4.6446,4.6446,0,0,1-1.3983,2.2465,14.6643,14.6643,0,0,1-4.0768,2.5906,9.359,9.359,0,0,1,2.8261,4.5051,5.6852,5.6852,0,0,1-.6528,4.2292,8.8961,8.8961,0,0,1-2.9636,2.9589A12.6238,12.6238,0,0,1,68.28,60.9318c.112,2.1776-1.7572,3.8889-4.8625,5.1511-4.3739,1.7779-11.4461,2.706-18.5409,2.7579-7.0863.0515-14.2376-.7719-18.7823-2.4959-3.3673-1.2776-5.4236-3.07-5.3082-5.4122Zm-4.7534-3.61a9.5616,9.5616,0,0,0,5.8547,1.5838.9979.9979,0,0,1,1.07,1.34c-.6511,1.7169.9646,3.14,3.8395,4.231,4.3206,1.639,11.2071,2.4213,18.0715,2.3712,6.8556-.05,13.65-.9309,17.7987-2.6173,2.624-1.0666,4.0629-2.4052,3.43-3.9614l.0009,0a.998.998,0,0,1,1.0615-1.3631,9.5618,9.5618,0,0,0,5.8547-1.5838,6.9124,6.9124,0,0,0,2.3071-2.2711,3.7537,3.7537,0,0,0,.434-2.7915c-.31-1.3411-1.3405-2.8588-3.405-4.5159-.5564-.6052-.5139-1.491.3362-1.74a13.4024,13.4024,0,0,0,4.8745-2.7147,2.78,2.78,0,0,0,.8433-1.2464.9492.9492,0,0,0-.3181-.8782A8.7909,8.7909,0,0,0,74.043,39.37c-9.35-2.3619-11.3227-8.0212-13.034-12.9334-.8856-2.5424-1.694-4.8623-3.507-6.1614a9.7343,9.7343,0,0,0-5.5041-1.6171A18.2245,18.2245,0,0,0,44.8563,20.13a.9952.9952,0,0,1-.7421,0,18.136,18.136,0,0,0-7.1076-1.4717,9.6347,9.6347,0,0,0-5.46,1.6171c-1.813,1.2991-2.6215,3.619-3.5073,6.1614-1.7113,4.9122-3.6836,10.5715-13.034,12.9334-2.1832.5513-3.4429,1.1656-4.0444,1.794a.9489.9489,0,0,0-.3181.8782,2.78,2.78,0,0,0,.8433,1.2464,13.41,13.41,0,0,0,4.8748,2.7147.9976.9976,0,0,1,.3438,1.7343c-2.0693,1.66-3.1025,3.18-3.4126,4.5221a3.7546,3.7546,0,0,0,.434,2.7915A6.9124,6.9124,0,0,0,16.0331,57.3227Z"/><path class="d" d="M64.0851,83.3771a43.573,43.573,0,0,1-39.122,0c-.0516-.5808-.08-1.1679-.08-1.762a19.6407,19.6407,0,0,1,39.2814,0C64.1648,82.2092,64.1367,82.7963,64.0851,83.3771Z"/><path class="b" d="M64.5344,84.2677a44.4666,44.4666,0,0,1-40.0206,0,.9978.9978,0,0,1-.548-.8659c-.0258-.2988-.0456-.5854-.0581-.8575-.0159-.35-.0244-.6625-.0244-.9292a20.6408,20.6408,0,0,1,41.2816,0c0,.2667-.0085.5788-.0244.9292-.0133.29-.0349.5978-.0632.9187a.9952.9952,0,0,1-.5437.803l.0008.0017ZM54.36,85.87a42.2235,42.2235,0,0,0,8.7738-3.1349l.0145-.2772c.0105-.2364.0164-.5159.0164-.843a18.6406,18.6406,0,1,0-37.2812,0c0,.3271.0059.6066.0164.843l.0145.2772A42.6857,42.6857,0,0,0,54.36,85.87Z"/><circle class="e" cx="44.5241" cy="66.439" r="7.8846"/><path class="b" d="M44.5241,57.5543a8.8855,8.8855,0,1,1-6.2821,2.6025,8.8564,8.8564,0,0,1,6.2821-2.6025Zm4.8682,4.0164a6.8852,6.8852,0,1,0,2.0163,4.8683A6.8632,6.8632,0,0,0,49.3923,61.5707Z"/><path class="f" d="M63.5386,47.3567a4.9312,4.9312,0,1,1-4.9311,4.9311A4.931,4.931,0,0,1,63.5386,47.3567Z"/><path class="b" d="M63.5386,46.3566a5.9319,5.9319,0,1,1-4.1938,1.7374,5.9134,5.9134,0,0,1,4.1938-1.7374Zm2.78,3.1513a3.9324,3.9324,0,1,0,1.1511,2.78A3.92,3.92,0,0,0,66.3186,49.5079Z"/><path class="f" d="M25.51,47.3567a4.9312,4.9312,0,1,1-4.9312,4.9311A4.9309,4.9309,0,0,1,25.51,47.3567Z"/><path class="b" d="M25.51,46.3566a5.9317,5.9317,0,1,1-4.1939,1.7374A5.9131,5.9131,0,0,1,25.51,46.3566Zm2.78,3.1513a3.9322,3.9322,0,1,0,1.1512,2.78A3.92,3.92,0,0,0,28.29,49.5079Z"/><circle class="e" cx="44.5241" cy="47.126" r="19.5001"/><path class="b" d="M44.5241,26.6258A20.5012,20.5012,0,1,1,30.0286,32.63a20.436,20.436,0,0,1,14.4955-6.0046Zm13.0816,7.4185A18.5007,18.5007,0,1,0,63.0241,47.126,18.4424,18.4424,0,0,0,57.6057,34.0443Z"/><path class="b" d="M36.18,49.7565a2.5314,2.5314,0,1,1-2.5313,2.5313A2.5313,2.5313,0,0,1,36.18,49.7565Z"/><path class="b" d="M52.8676,49.7565a2.5314,2.5314,0,1,1-2.5313,2.5313A2.5313,2.5313,0,0,1,52.8676,49.7565Z"/><path class="c" d="M36.3422,23.0788c2.4094-2.8936,14.1114-2.9962,16.5155-.015l14.3192,17.76c-3.0711,2.4931-8.2457,3.1961-13.3849,1.4525-4.5-1.5262-7.8789-4.5567-9.2682-7.8693-1.3892,3.3126-4.7687,6.3428-9.2679,7.87-5.2412,1.7778-10.5185,1.0114-13.5646-1.6028Z"/><path class="b" d="M65.0308,41.0249a.9976.9976,0,0,1,.8986,1.7813,14.1308,14.1308,0,0,1-5.9313,1.4222,19.065,19.065,0,0,1-12.5645-4.3815,14.7243,14.7243,0,0,1-2.91-3.2984,14.7044,14.7044,0,0,1-2.91,3.2981A19.0623,19.0623,0,0,1,29.081,44.23a14.168,14.168,0,0,1-5.91-1.3989.9958.9958,0,1,1,.8907-1.7813,12.1715,12.1715,0,0,0,5.074,1.188,17.1,17.1,0,0,0,11.19-3.9141A11.7073,11.7073,0,0,0,43.602,34.02a1,1,0,0,1,1.8436,0,11.7159,11.7159,0,0,0,3.2772,4.3035,17.1018,17.1018,0,0,0,11.2209,3.9127A12.12,12.12,0,0,0,65.0308,41.0249Z"/><rect class="g" x="43.524" y="19.3952" width="2.0002" height="15.2251"/><path class="h" d="M65.0294,34.1107c1.1219,0,2.0435,1.605,2.1461,3.6555,1.5225-1.3776,3.3094-1.8609,4.1026-1.0675s.31,2.58-1.0676,4.1026c2.0506.1026,3.6556,1.0241,3.6556,2.1461s-1.605,2.0435-3.6556,2.1461c1.3774,1.5225,1.8607,3.3092,1.0673,4.1023s-2.58.31-4.1023-1.0672c-.1026,2.0506-1.0242,3.6558-2.1461,3.6558s-2.0435-1.6052-2.1462-3.6558c-1.5224,1.3773-3.3091,1.8606-4.1022,1.0672s-.31-2.58,1.0672-4.1023c-2.0506-.1026-3.6558-1.0241-3.6558-2.1461s1.6052-2.0435,3.6558-2.1461c-1.3776-1.5228-1.861-3.3095-1.0675-4.1026s2.58-.31,4.1025,1.0675c.1027-2.05,1.0242-3.6555,2.1462-3.6555ZM64.6932,43.76a1.1775,1.1775,0,0,1,.6723,0,1.1795,1.1795,0,0,1,.4757-.4759,1.18,1.18,0,0,1,0-.673,1.1783,1.1783,0,0,1-.4751-.475,1.1816,1.1816,0,0,1-.6735,0,1.18,1.18,0,0,1-.4754.4753,1.1766,1.1766,0,0,1,0,.6727,1.1778,1.1778,0,0,1,.476.4759Z"/><path class="b" d="M65.0294,33.1106a2.7375,2.7375,0,0,1,2.3093,1.5457,5.7521,5.7521,0,0,1,.5622,1.3593,5.75,5.75,0,0,1,1.36-.565,2.4989,2.4989,0,0,1,3.2657,3.2658,5.75,5.75,0,0,1-.5649,1.3595,5.7494,5.7494,0,0,1,1.3592.5621,2.4981,2.4981,0,0,1,0,4.6188,5.7494,5.7494,0,0,1-1.3592.5621,5.7529,5.7529,0,0,1,.5647,1.36,2.7376,2.7376,0,0,1-.5412,2.7207l-.002.0017-.0017.002-.0051.0051a2.74,2.74,0,0,1-2.7155.536,5.7445,5.7445,0,0,1-1.36-.5647,5.7519,5.7519,0,0,1-.5622,1.36,2.4979,2.4979,0,0,1-4.6187,0,5.7477,5.7477,0,0,1-.5621-1.36,5.7445,5.7445,0,0,1-1.3595.5647,2.7382,2.7382,0,0,1-2.7207-.5411l-.0017-.002-.002-.0017-.0051-.0051a2.7411,2.7411,0,0,1-.536-2.7156,5.7482,5.7482,0,0,1,.5646-1.36,5.7536,5.7536,0,0,1-1.3595-.5621,2.4981,2.4981,0,0,1,0-4.6188,5.7483,5.7483,0,0,1,1.3595-.5621,5.7517,5.7517,0,0,1-.5649-1.36,2.4988,2.4988,0,0,1,3.2658-3.2655,5.75,5.75,0,0,1,1.3595.565,5.7478,5.7478,0,0,1,.5621-1.3593,2.7375,2.7375,0,0,1,2.3094-1.5457Zm.59,2.5537c-.2018-.3438-.4127-.5536-.59-.5536s-.3887.21-.59.5536a4.8262,4.8262,0,0,0-.56,2.1487h-.0014a.9957.9957,0,0,1-1.6628.6917A4.8281,4.8281,0,0,0,60.2983,37.38c-.3872-.1006-.6854-.1-.8107.0253s-.1255.4235-.0252.81a4.7878,4.7878,0,0,0,1.0922,1.8816.997.997,0,0,1-.66,1.7,4.8269,4.8269,0,0,0-2.149.5595c-.3435.2019-.5536.4128-.5536.59s.21.3886.5536.59a4.8269,4.8269,0,0,0,2.149.5595v.0014a.9958.9958,0,0,1,.6916,1.6628,4.8215,4.8215,0,0,0-1.1239,1.9168c-.1009.3887-.1018.6871.0215.81l.0037.0036c.123.1233.4218.1225.81.0216A4.7837,4.7837,0,0,0,62.18,47.4222a.9969.9969,0,0,1,1.7.66,4.8268,4.8268,0,0,0,.56,2.1489c.2018.3436.4127.5536.59.5536s.3886-.21.59-.5536a4.8268,4.8268,0,0,0,.56-2.1489h.0014a.9957.9957,0,0,1,1.6628-.6917,4.8218,4.8218,0,0,0,1.9168,1.124c.3886.1009.6874.1017.81-.0216l.0037-.0036c.1233-.1231.1225-.4218.0215-.81a4.7822,4.7822,0,0,0-1.0919-1.8813.997.997,0,0,1,.66-1.7,4.8254,4.8254,0,0,0,2.1486-.5595c.3439-.2019.5536-.4128.5536-.59s-.21-.3886-.5536-.59a4.8254,4.8254,0,0,0-2.1486-.5595V41.796a.9958.9958,0,0,1-.6917-1.6628,4.8265,4.8265,0,0,0,1.1242-1.9168c.1007-.3872.1-.6857-.0252-.8107s-.4238-.1256-.8107-.0253a4.7925,4.7925,0,0,0-1.88,1.0911.9972.9972,0,0,1-1.701-.6585,4.8262,4.8262,0,0,0-.56-2.1487Zm-.6182,9.0468.0278-.0005.0277.0005.0312.0054a.9975.9975,0,0,0,1.1549-.485l.0014.0008.0144-.02.0145-.02,0-.0006.002.002c.015-.015.01-.0133.015-.017l.0269-.0182a.9971.9971,0,0,0,.48-1.1531l-.0051-.0329-.0009-.0252.0006-.0286.0054-.027a.9986.9986,0,0,0-.4915-1.1636l-.0148-.01-.0159-.0176a.1205.1205,0,0,0-.017-.015l-.0178-.0266a.9971.9971,0,0,0-1.156-.48l0-.0008-.0269.0054-.0286.0005-.0287-.0005-.0269-.0054A.9984.9984,0,0,0,63.81,41.67l-.01.015-.0173.0156c-.015.015-.01.0133-.015.017l-.027.0182a.9972.9972,0,0,0-.48,1.1559l-.0008,0,.0053.0267.0006.0286-.0006.0278-.0053.0312a.9972.9972,0,0,0,.485,1.1548l-.0009.0014.02.0145.02.0144.0023.0023.013.0147.002.0026-.002.0014.0144.02a.9988.9988,0,0,0,1.1722.4814Z"/><polygon class="b" points="63.406 36.697 68.469 48.36 66.641 49.149 61.578 37.486 63.406 36.697"/><polygon class="b" points="68.068 37.721 63.793 48.446 61.942 47.712 66.217 36.987 68.068 37.721"/><rect class="g" x="59.429" y="41.9997" width="11.4147" height="1.9964" transform="translate(-11.5233 28.3398) rotate(-22.6048)"/><rect class="g" x="64.2515" y="37.1888" width="1.9946" height="11.6555" transform="translate(-0.2274 85.6863) rotate(-66.4873)"/><path class="i" d="M65.0294,40.51a2.4374,2.4374,0,1,1-2.4376,2.4372A2.4377,2.4377,0,0,1,65.0294,40.51Z"/><path class="b" d="M65.0294,39.51a3.4386,3.4386,0,1,1-2.43,1.0072,3.4273,3.4273,0,0,1,2.43-1.0072Zm1.0165,2.4211a1.4375,1.4375,0,1,0,.4209,1.0162A1.4337,1.4337,0,0,0,66.0459,41.9312Z"/></svg>