<svg width="89.0482px" height="89.0482px" viewBox="0 0 89.0482 89.0482" xmlns="http://www.w3.org/2000/svg"><defs><style>.a{fill:#bf97c6;}.b,.h{fill:#231f20;}.b,.c,.d,.f,.g{fill-rule:evenodd;}.c{fill:#8d7972;}.d{fill:#a2d8ce;}.e,.f{fill:#f9ddd1;}.g{fill:#fff;}</style></defs><circle class="a" cx="44.5241" cy="44.5241" r="43.524"/><path class="b" d="M44.5241,0a44.5251,44.5251,0,1,1-31.483,13.0411A44.3855,44.3855,0,0,1,44.5241,0ZM74.5932,14.455A42.5246,42.5246,0,1,0,87.048,44.5241,42.392,42.392,0,0,0,74.5932,14.455Z"/><path class="c" d="M24.4333,67.464c-2.4517-5.0769-3.9552-8.564-4.9451-14.1248C10.65,3.7318,78.2552,3.42,69.6215,53.0294c-.9831,5.6489-2.5611,9.4255-4.8563,14.6594C56.2638,64.029,31.4419,63.9938,24.4333,67.464Z"/><path class="b" d="M23.5347,67.8977c-1.241-2.57-2.2425-4.7384-3.06-6.9707a42.6273,42.6273,0,0,1-1.9712-7.416c-2.9382-16.4917,2.402-27.72,10.6653-33.6348A26.77,26.77,0,0,1,59.9063,19.79c8.2287,5.8436,13.5581,16.9821,10.7,33.408a47.0161,47.0161,0,0,1-1.9792,7.6453c-.8167,2.3409-1.7923,4.6109-2.9475,7.2445a.9972.9972,0,0,1-1.3079.5176l-.0008.002c-4.1-1.7651-12.1913-2.6631-20.158-2.7073-8.0705-.0448-15.946.78-19.338,2.459a.9976.9976,0,0,1-1.3359-.4532l-.0037-.0077ZM22.35,60.2393c.7015,1.9165,1.5454,3.79,2.5667,5.9278,4.0071-1.5446,11.6045-2.3023,19.3034-2.26,7.66.0425,15.4789.8725,20.016,2.5013.9731-2.232,1.8071-4.2152,2.5075-6.2224a45.0382,45.0382,0,0,0,1.893-7.325C71.3421,37.3167,66.4036,26.85,58.75,21.4149a24.7634,24.7634,0,0,0-28.4242.0867c-7.6861,5.5012-12.6343,16.054-9.8529,31.6659A40.68,40.68,0,0,0,22.35,60.2393Z"/><path class="d" d="M64.0851,83.3771a43.573,43.573,0,0,1-39.122,0c-.0516-.5808-.08-1.1678-.08-1.762a19.6407,19.6407,0,0,1,39.2814,0C64.1648,82.2093,64.1367,82.7963,64.0851,83.3771Z"/><path class="b" d="M64.5344,84.2678a44.4677,44.4677,0,0,1-40.0206,0,.9972.9972,0,0,1-.548-.866c-.0258-.2991-.0456-.5856-.0581-.8575-.0159-.35-.0244-.6624-.0244-.9292a20.6408,20.6408,0,0,1,41.2816,0c0,.2668-.0085.5788-.0244.9292-.0133.29-.0349.5976-.0632.9187a.9953.9953,0,0,1-.5437.8031l.0008.0017ZM54.36,85.87a42.2232,42.2232,0,0,0,8.7738-3.1348l.0145-.2773c.0105-.2364.0164-.5159.0164-.843a18.6406,18.6406,0,1,0-37.2812,0c0,.3271.0059.6066.0164.843l.0145.2773A42.6863,42.6863,0,0,0,54.36,85.87Z"/><circle class="e" cx="44.5241" cy="66.439" r="7.8846"/><path class="b" d="M44.5241,57.5544a8.8853,8.8853,0,1,1-6.2821,2.6024,8.8563,8.8563,0,0,1,6.2821-2.6024Zm4.8682,4.0164a6.8851,6.8851,0,1,0,2.0163,4.8682A6.8629,6.8629,0,0,0,49.3923,61.5708Z"/><path class="f" d="M63.5386,47.3567a4.9312,4.9312,0,1,1-4.9311,4.9312A4.931,4.931,0,0,1,63.5386,47.3567Z"/><path class="b" d="M63.5386,46.3567a5.9317,5.9317,0,1,1-4.1938,1.7373,5.9133,5.9133,0,0,1,4.1938-1.7373Zm2.78,3.1512a3.9324,3.9324,0,1,0,1.1511,2.78A3.92,3.92,0,0,0,66.3186,49.5079Z"/><path class="f" d="M25.51,47.3567a4.9312,4.9312,0,1,1-4.9312,4.9312A4.931,4.931,0,0,1,25.51,47.3567Z"/><path class="b" d="M25.51,46.3567a5.9315,5.9315,0,1,1-4.1939,1.7373A5.913,5.913,0,0,1,25.51,46.3567Zm2.78,3.1512a3.9322,3.9322,0,1,0,1.1512,2.78A3.92,3.92,0,0,0,28.29,49.5079Z"/><circle class="e" cx="44.5241" cy="47.126" r="19.5001"/><path class="b" d="M44.5241,26.6258A20.5013,20.5013,0,1,1,30.0286,32.63a20.4361,20.4361,0,0,1,14.4955-6.0047Zm13.0816,7.4186A18.5006,18.5006,0,1,0,63.0241,47.126,18.442,18.442,0,0,0,57.6057,34.0444Z"/><path class="c" d="M44.4405,70.4806C33.3919,68.485,25.81,59.5953,25.9651,52.8293c1.9281,2.6209,7.3026,7.8151,11.8979,8.1357.8818-4.4691,4.0785-3.5688,6.6713-2.8125,2.5929-.7563,5.7745-1.6566,6.6563,2.8125,3.9855-.1429,8.6777-3.7939,11.8511-8.1825.2015,6.3907-7.74,16.0308-18.6012,17.6981Zm-3.8251-7.3987c-.2066,1.91,7.9971,1.6563,7.8171,0-.5051-3.0878-.464-2.22-3.9314-1.95C41.0338,60.8618,41.1205,59.9941,40.6154,63.0819Z"/><path class="b" d="M44.1766,71.4447a26.2859,26.2859,0,0,1-13.3359-6.7581c-3.7831-3.6142-5.96-8.0416-5.8717-11.8769a.9962.9962,0,0,1,1.7994-.5695l.0015-.0008a26.3473,26.3473,0,0,0,5.8237,5.5094,12.9507,12.9507,0,0,0,4.5171,2.1073,4.1427,4.1427,0,0,1,3.2587-3.2375,9.1576,9.1576,0,0,1,4.1649.4964,9.1266,9.1266,0,0,1,4.1576-.4964,4.15,4.15,0,0,1,3.2612,3.27A11.7663,11.7663,0,0,0,56.59,57.8316a24.1369,24.1369,0,0,0,5.6432-5.635.9987.9987,0,0,1,1.8065.6284c.0831,3.6718-2.2405,8.2619-6.1517,11.9832A25.0419,25.0419,0,0,1,44.589,71.4691a.995.995,0,0,1-.4124-.0244Zm.0805-12.3353a8.3611,8.3611,0,0,0-3.5124-.53c-.8462.1639-1.56.8417-1.9018,2.5767a.9988.9988,0,0,1-1.0463.8048,13.4334,13.4334,0,0,1-6.3283-2.5637,28.8355,28.8355,0,0,1-4.0116-3.36,17.7543,17.7543,0,0,0,4.7594,7.2039,24.2814,24.2814,0,0,0,12.2278,6.2272,23.0459,23.0459,0,0,0,12.0685-6.1056A19.4513,19.4513,0,0,0,61.4,56.3065a24.2062,24.2062,0,0,1-3.6777,3.1658,12.7233,12.7233,0,0,1-6.42,2.4854.9993.9993,0,0,1-1.0919-.8014c-.3421-1.7353-1.0516-2.4131-1.8935-2.5767a8.3167,8.3167,0,0,0-3.4968.5276.9827.9827,0,0,1-.5627.0022Zm-4.6222,3.7888c-.0048.0255-.0088.0519-.0116.0783-.1213,1.1194.7421,1.8113,2.067,2.1551a10.9613,10.9613,0,0,0,2.7145.2852,12.5245,12.5245,0,0,0,2.7416-.3044c1.4312-.347,2.3959-1.05,2.2782-2.1359h0l-.0074-.0547c-.5545-3.3906-.6492-3.3764-3.2607-2.9917-.4331.0635-.9785.144-1.6554.1993-.6806-.0556-1.2263-.1367-1.6577-.2007-2.6-.3856-2.6581-.3938-3.2083,2.97Zm2.9191-.9927c-.6959-.1031-.7183-.106-.9468,1.2907.0071.0751.2583-.0788.5831.0056a8.9947,8.9947,0,0,0,2.2065.2228,10.4107,10.4107,0,0,0,2.2808-.25c.4223-.1023.7585.1347.7631.023-.23-1.4032-.2642-1.3984-.9953-1.2906-.4751.07-1.0777.159-1.8643.22a.9022.9022,0,0,1-.1542.0006C43.6329,62.066,43.0283,61.9761,42.554,61.9055Z"/><path class="g" d="M52.8676,48.5342a3.7537,3.7537,0,1,1-3.7536,3.7537A3.7538,3.7538,0,0,1,52.8676,48.5342Z"/><path class="b" d="M52.8676,47.5342a4.74,4.74,0,0,1,3.3574,1.3926l.0017.002.0019.0017.0012.0011a4.7432,4.7432,0,0,1-.0012,6.7136l-.0019.0017-.0017.002-.0012.0011a4.7431,4.7431,0,0,1-6.7136-.0011l-.0017-.002-.0019-.0017-.0012-.0011a4.7432,4.7432,0,0,1,.0012-6.7136l.0019-.0017.0017-.002.0012-.0011a4.7393,4.7393,0,0,1,3.3562-1.3915Zm1.9471,2.8029a2.7626,2.7626,0,0,0-3.8942,0l-.0037.0037a2.7626,2.7626,0,0,0,0,3.8942l.0037.0037a2.7629,2.7629,0,0,0,3.8942,0l.0037-.0037a2.7626,2.7626,0,0,0,0-3.8942Z"/><path class="b" d="M40.7427,52.9072a.997.997,0,1,1-1.3045-1.508,7.66,7.66,0,0,1,5.0938-2.1169,8.0315,8.0315,0,0,1,5.0624,2.1013.9988.9988,0,1,1-1.2733,1.5392,6.138,6.138,0,0,0-3.8049-1.6483A5.7562,5.7562,0,0,0,40.7427,52.9072Z"/><path class="b" d="M33.0835,50.3637a.9976.9976,0,0,1-1.0392,1.7031l-8.1564-4.9714a.9976.9976,0,1,1,1.0392-1.7031Z"/><path class="b" d="M57.2709,52.0668a.9975.9975,0,1,1-1.0391-1.7031l8.1564-4.9714a.9975.9975,0,1,1,1.0391,1.7031Z"/><path class="g" d="M36.18,48.5342a3.7537,3.7537,0,1,1-3.7536,3.7537A3.7538,3.7538,0,0,1,36.18,48.5342Z"/><path class="b" d="M36.18,47.5342a4.7407,4.7407,0,0,1,3.3574,1.3926l.0017.002.002.0017.0011.0011a4.7433,4.7433,0,0,1-.0011,6.7136l-.002.0017-.0017.002-.0012.0011a4.743,4.743,0,0,1-6.7135-.0011l-.0017-.002-.002-.0017-.0012-.0011a4.7432,4.7432,0,0,1,.0012-6.7136l.002-.0017.0017-.002.0011-.0011A4.7383,4.7383,0,0,1,36.18,47.5342Zm1.9471,2.8029a2.7626,2.7626,0,0,0-3.8942,0l-.0037.0037a2.7626,2.7626,0,0,0,0,3.8942l.0037.0037a2.7629,2.7629,0,0,0,3.8942,0l.0037-.0037a2.7626,2.7626,0,0,0,0-3.8942Z"/><path class="c" d="M53.9351,23.2019l9.22,9.5105L63.43,38.931c-6.07,4.8218-17.1989,2.4052-18.9065-4.348-1.7076,6.7532-12.8364,9.17-18.9062,4.348l.5326-7.0656,8.1924-8.9635,10.58.0752Z"/><path class="b" d="M62.8093,38.15a.998.998,0,1,1,1.2421,1.5624,12.5062,12.5062,0,0,1-4.7367,2.2941,15.6959,15.6959,0,0,1-7.8681-.1054,12.0615,12.0615,0,0,1-6.3077-3.9084,8.78,8.78,0,0,1-.6151-.8774,8.8147,8.8147,0,0,1-.6151.8774,12.0576,12.0576,0,0,1-6.3074,3.9084,15.6958,15.6958,0,0,1-7.8681.1057,12.5112,12.5112,0,0,1-4.7367-2.2944A.998.998,0,1,1,26.2387,38.15a10.51,10.51,0,0,0,3.9787,1.919,13.6863,13.6863,0,0,0,6.8607-.09A10.0657,10.0657,0,0,0,42.3462,36.75a6.3716,6.3716,0,0,0,1.2087-2.4094.9987.9987,0,0,1,1.9378,0A6.373,6.373,0,0,0,46.7014,36.75,10.0677,10.0677,0,0,0,51.97,39.979a13.6875,13.6875,0,0,0,6.8607.09A10.5081,10.5081,0,0,0,62.8093,38.15Z"/><rect class="h" x="43.5374" y="15.8505" width="2.0001" height="18.9"/></svg>