<svg width="89.0481px" height="89.0481px" viewBox="0 0 89.0481 89.0481" xmlns="http://www.w3.org/2000/svg"><defs><style>.a{fill:#00aeef;}.b{fill:#231f20;}.b,.c,.d,.f{fill-rule:evenodd;}.c,.e{fill:#b09473;}.d{fill:#54b948;}.f{fill:#58595b;}</style></defs><circle class="a" cx="44.5241" cy="44.5241" r="43.524"/><path class="b" d="M44.5241,0a44.5251,44.5251,0,1,1-31.483,13.0411A44.3855,44.3855,0,0,1,44.5241,0Zm30.069,14.455A42.5243,42.5243,0,1,0,87.048,44.5241,42.3916,42.3916,0,0,0,74.5931,14.455Z"/><path class="c" d="M63.5386,47.3567a4.9312,4.9312,0,1,1-4.9312,4.9312A4.931,4.931,0,0,1,63.5386,47.3567Z"/><path class="b" d="M63.5386,46.3567a5.9315,5.9315,0,1,1-4.1939,1.7373,5.913,5.913,0,0,1,4.1939-1.7373Zm2.78,3.1512a3.9322,3.9322,0,1,0,1.1512,2.78A3.92,3.92,0,0,0,66.3185,49.5079Z"/><path class="d" d="M64.0851,83.3771a43.5732,43.5732,0,0,1-39.1221,0c-.0516-.5808-.08-1.1678-.08-1.762a19.6407,19.6407,0,0,1,39.2814,0C64.1648,82.2093,64.1367,82.7963,64.0851,83.3771Z"/><path class="b" d="M64.5344,84.2678a44.4681,44.4681,0,0,1-40.0207,0,.9971.9971,0,0,1-.5479-.866c-.0258-.2991-.0456-.5856-.0581-.8575-.0159-.35-.0244-.6624-.0244-.9292a20.6408,20.6408,0,0,1,41.2815,0c0,.2668-.0085.5788-.0244.9292-.0133.29-.0348.5976-.0632.9187a.9951.9951,0,0,1-.5437.8031l.0009.0017ZM54.36,85.87a42.2253,42.2253,0,0,0,8.7738-3.1348l.0145-.2773c.01-.2364.0164-.5159.0164-.843a18.6407,18.6407,0,1,0-37.2813,0c0,.3271.006.6066.0165.843l.0144.2773A42.6866,42.6866,0,0,0,54.36,85.87Z"/><circle class="e" cx="44.5241" cy="66.439" r="7.8846" transform="matrix(0.1598, -0.9872, 0.9872, 0.1598, -28.1758, 99.7747)"/><path class="b" d="M44.5241,57.5544a8.8853,8.8853,0,1,1-6.2822,2.6024,8.8563,8.8563,0,0,1,6.2822-2.6024Zm4.8682,4.0164a6.8851,6.8851,0,1,0,2.0163,4.8682A6.863,6.863,0,0,0,49.3923,61.5708Z"/><circle class="e" cx="44.5241" cy="47.126" r="19.5001"/><path class="b" d="M44.5241,26.6258A20.5012,20.5012,0,1,1,30.0285,32.63a20.4361,20.4361,0,0,1,14.4956-6.0047Zm13.0816,7.4186A18.5006,18.5006,0,1,0,63.0241,47.126,18.4424,18.4424,0,0,0,57.6057,34.0444Z"/><path class="b" d="M52.8676,49.7565a2.5314,2.5314,0,1,1-2.5314,2.5314A2.5313,2.5313,0,0,1,52.8676,49.7565Z"/><path class="b" d="M28.3728,64.9811c-.3923-20.32,15.6946.2251,20.33-32.9028,5.9108,2.9831,10.6254,9.02,14.7569,15.28l.0785-.0012c.12,0,.24.0046.3583.0131.1193-.0088.24-.0131.3617-.0131a4.9075,4.9075,0,0,1,2.2195.5267c4.3469-7.6808,2.4137-18.4076-6.4556-25.1107,9.642-10.042-13.57-18.4638-13.57-5.527,0,2.1963.0332.7713.0978,1.1446C19.0168,16.7615,12.2536,47.7621,28.3728,64.9811Z"/><path class="b" d="M27.4235,62.354c.4445-7.361,3.5994-8.3265,7.4735-9.51,4.58-1.3989,10.3349-3.1575,12.8177-20.9024a.9985.9985,0,0,1,1.4675-.739,29.6238,29.6238,0,0,1,8.305,6.6153,71.0944,71.0944,0,0,1,6.512,8.5475l.0414-.0011v0l.218-.0073a5.9569,5.9569,0,0,1,1.3734.16c.13.0309.2588.0661.386.106a17.0438,17.0438,0,0,0,1.1229-11.8253,20.5655,20.5655,0,0,0-7.72-11.228.9991.9991,0,0,1-.0882-1.5188c2.1113-2.2153,2.4021-4.28,1.6611-5.9448a7.8386,7.8386,0,0,0-4.4215-3.7539,8.7335,8.7335,0,0,0-5.9966-.2991c-1.8035.6713-3.1235,2.2978-3.1235,5.1928,0,.0711-.1868.1242-.4088.1627a1.0253,1.0253,0,0,1,.491.8138.9932.9932,0,0,1-.1194.667c-.0924.35-.2744.6163-.9416.6163a.8559.8559,0,0,1-.5273-.1466c-7.7542-.3367-13.7435,2.0217-17.9226,5.9338a22.0294,22.0294,0,0,0-5.1151,7.3295A26.3908,26.3908,0,0,0,20.81,41.5984,30.7926,30.7926,0,0,0,27.4235,62.354Zm8.0518-7.6034c-3.4926,1.0667-6.2665,1.9145-6.1064,10.2149h-.0014a.9948.9948,0,0,1-1.7212.6954,32.8275,32.8275,0,0,1-8.8282-24.18,28.39,28.39,0,0,1,2.262-9.656,24.0173,24.0173,0,0,1,5.584-7.9855c4.4487-4.1643,10.7322-6.7166,18.7883-6.4953l0-.0986c0-3.8874,1.8712-6.1087,4.428-7.06a10.7455,10.7455,0,0,1,7.4112.307,9.8251,9.8251,0,0,1,5.523,4.8011c.9618,2.1614.783,4.714-1.3464,7.3485a22.3726,22.3726,0,0,1,7.6028,11.6634,18.9365,18.9365,0,0,1-1.7065,14.0361.9975.9975,0,0,1-1.3354.4325,3.9073,3.9073,0,0,0-.8577-.3115,3.9572,3.9572,0,0,0-.9125-.1057l-.1477-.0006v0l-.004,0-.14.01a.97.97,0,0,1-.1406,0l-.1392-.01h-.0059l-.1429.0006v-.0037h-.0063a.9975.9975,0,0,1-.9042-.4445A70.9128,70.9128,0,0,0,56.01,39.1615a29.4,29.4,0,0,0-6.5316-5.5185c-2.7765,17.6749-9.0133,19.5834-14.0034,21.1076Zm28.2121-6.3944h0Z"/><path class="f" d="M27.142,56.3116a.9981.9981,0,1,1-1.9842-.2188c.502-4.4062,3.2249-5.5358,6.4814-6.8862,4.6732-1.938,10.6248-4.4067,11.0435-20.78a.9964.9964,0,1,1,1.9922.0471c-.4519,17.6757-7.0716,20.4213-12.27,22.5771C29.7391,52.1558,27.51,53.0807,27.142,56.3116Z"/><path class="f" d="M31.4036,46.7175a.9993.9993,0,1,1-.8594-1.8045A10.9107,10.9107,0,0,0,35.23,41.2021c1.38-2.0128,2.4376-5.095,2.8188-10.1194.0349-.46.0624-.8875.0822-1.2855.023-.4668.0408-.9252.0522-1.3711a.9964.9964,0,1,1,1.9922.0471q-.0192.7662-.0522,1.4176c-.0252.504-.0527.9524-.0822,1.3405-.4116,5.4226-1.6007,8.8186-3.1623,11.0962A12.7141,12.7141,0,0,1,31.4036,46.7175Z"/></svg>