<svg width="89.0481px" height="89.0481px" viewBox="0 0 89.0481 89.0481" xmlns="http://www.w3.org/2000/svg"><defs><style>.a{fill:#9b95c9;}.b,.h{fill:#231f20;}.b,.d,.e,.g,.i{fill-rule:evenodd;}.c,.d{fill:#e6e7e8;}.e{fill:#f8abad;}.f,.g{fill:#c9ae76;}.i{fill:#fff;}</style></defs><circle class="a" cx="44.524" cy="44.5241" r="43.524"/><path class="b" d="M44.524,0A44.5249,44.5249,0,1,1,13.041,13.0411,44.3854,44.3854,0,0,1,44.524,0ZM74.5931,14.455A42.5244,42.5244,0,1,0,87.048,44.5241,42.3919,42.3919,0,0,0,74.5931,14.455Z"/><ellipse class="c" cx="44.524" cy="19.8737" rx="9.525" ry="7.575"/><path class="b" d="M44.524,11.2986A11.8515,11.8515,0,0,1,51.88,13.7361a7.8591,7.8591,0,0,1,3.1689,6.1376A7.859,7.859,0,0,1,51.88,26.0113a12.319,12.319,0,0,1-14.7124,0,7.8592,7.8592,0,0,1-3.1688-6.1376,7.8593,7.8593,0,0,1,3.1688-6.1376,11.8517,11.8517,0,0,1,7.3562-2.4375Zm6.1141,4a10.3462,10.3462,0,0,0-12.2281,0,5.8975,5.8975,0,0,0-2.4109,4.5751A5.8974,5.8974,0,0,0,38.41,24.4488a10.3458,10.3458,0,0,0,12.2281,0,5.8973,5.8973,0,0,0,2.4108-4.5751A5.8974,5.8974,0,0,0,50.6381,15.2986Z"/><path class="d" d="M44.524,21.6749c12.979,0,23.5,9.29,23.5,20.75S57.503,63.1761,44.524,63.1761s-23.5-9.29-23.5-20.7508S31.545,21.6749,44.524,21.6749Z"/><path class="b" d="M44.524,20.6748a26.0783,26.0783,0,0,1,17.2775,6.3317,20.5392,20.5392,0,0,1,7.2229,15.4188,20.54,20.54,0,0,1-7.2229,15.4191A26.0775,26.0775,0,0,1,44.524,64.1761a26.0774,26.0774,0,0,1-17.2774-6.3317,20.54,20.54,0,0,1-7.223-15.4191,20.5393,20.5393,0,0,1,7.223-15.4188A26.0779,26.0779,0,0,1,44.524,20.6748Zm15.9571,7.8239A24.0758,24.0758,0,0,0,44.524,22.6749a24.0758,24.0758,0,0,0-15.957,5.8238,18.5643,18.5643,0,0,0-6.5433,13.9266A18.565,18.565,0,0,0,28.567,56.3522,24.0746,24.0746,0,0,0,44.524,62.176a24.0753,24.0753,0,0,0,15.9571-5.8238,18.5649,18.5649,0,0,0,6.5432-13.9269A18.5642,18.5642,0,0,0,60.4811,28.4987Z"/><path class="e" d="M64.0851,83.3772a43.574,43.574,0,0,1-39.1221,0c-.0516-.5809-.08-1.1679-.08-1.7621a19.6407,19.6407,0,1,1,39.2814,0C64.1647,82.2093,64.1367,82.7963,64.0851,83.3772Z"/><path class="b" d="M64.5344,84.2678a44.4681,44.4681,0,0,1-40.0207,0,.9975.9975,0,0,1-.5479-.866c-.0258-.2988-.0457-.5853-.0581-.8575-.0159-.35-.0244-.6624-.0244-.9292a20.6408,20.6408,0,0,1,41.2815,0c0,.2668-.0085.5789-.0244.9292-.0133.2906-.0349.5979-.0632.9187a.9952.9952,0,0,1-.5437.8031l.0009.0017ZM54.36,85.87a42.2274,42.2274,0,0,0,8.7738-3.1348l.0144-.2772c.0105-.2364.0165-.5159.0165-.8431a18.6407,18.6407,0,1,0-37.2813,0c0,.3272.006.6067.0164.8431l.0145.2772A42.6847,42.6847,0,0,0,54.36,85.87Z"/><circle class="f" cx="44.524" cy="66.439" r="7.8846" transform="translate(-21.9478 21.964) rotate(-22.3863)"/><path class="b" d="M44.524,57.5544a8.8855,8.8855,0,1,1-6.2821,2.6025,8.8568,8.8568,0,0,1,6.2821-2.6025Zm4.8683,4.0164a6.8853,6.8853,0,1,0,2.0162,4.8682A6.8633,6.8633,0,0,0,49.3923,61.5708Z"/><path class="g" d="M63.5386,47.3567a4.9312,4.9312,0,1,1-4.9312,4.9312A4.931,4.931,0,0,1,63.5386,47.3567Z"/><path class="b" d="M63.5386,46.3567a5.9317,5.9317,0,1,1-4.1939,1.7373,5.9132,5.9132,0,0,1,4.1939-1.7373Zm2.78,3.1513a3.9323,3.9323,0,1,0,1.1511,2.78A3.92,3.92,0,0,0,66.3185,49.508Z"/><path class="g" d="M25.51,47.3567a4.9312,4.9312,0,1,1-4.9311,4.9312A4.9311,4.9311,0,0,1,25.51,47.3567Z"/><path class="b" d="M25.51,46.3567a5.9317,5.9317,0,1,1-4.1938,1.7373A5.9133,5.9133,0,0,1,25.51,46.3567Zm2.78,3.1513a3.932,3.932,0,1,0,1.1512,2.78A3.92,3.92,0,0,0,28.2894,49.508Z"/><circle class="f" cx="44.524" cy="47.126" r="19.5001"/><path class="b" d="M44.524,26.6258A20.5012,20.5012,0,1,1,30.0285,32.63,20.4365,20.4365,0,0,1,44.524,26.6258Zm13.0816,7.4186A18.5,18.5,0,1,0,63.0241,47.126,18.4424,18.4424,0,0,0,57.6056,34.0444Z"/><path class="d" d="M24.2229,41.3986l.6,1.05c6.7994.45,21.6493-3.8152,24.6-11.4,4.33,8.3331,9.1242,9.3671,14.3246,10.3111,1.702.3089-1.4119-6.0044-1.5749-6.5614l-7.65-7.65-12.9-1.95-10.95,4.5-4.8,6.9Z"/><path class="b" d="M24.76,43.4447a.9981.9981,0,0,1,.1253-1.9922c3.6947.2443,9.8819-.9675,15.11-3.39,3.954-1.8323,7.3159-4.3356,8.4977-7.3729a.9968.9968,0,0,1,1.8142-.1l.0022-.0012c2.0676,3.979,4.2185,6.2,6.4573,7.528a20.6853,20.6853,0,0,0,7.1564,2.2635.9961.9961,0,1,1-.3515,1.961,22.3511,22.3511,0,0,1-7.8208-2.5056,18.1814,18.1814,0,0,1-6.2974-6.675c-1.78,2.7731-4.9856,5.03-8.6219,6.715C35.3134,42.4318,28.7266,43.7069,24.76,43.4447Z"/><rect class="h" x="48.4239" y="22.3498" width="2.0002" height="8.5501"/><path class="b" d="M40.7426,52.9075A.997.997,0,1,1,39.4381,51.4a7.6626,7.6626,0,0,1,5.0939-2.1169,8.0334,8.0334,0,0,1,5.0624,2.1013.9988.9988,0,0,1-1.2734,1.5392,6.14,6.14,0,0,0-3.8049-1.6483A5.7583,5.7583,0,0,0,40.7426,52.9075Z"/><path class="b" d="M33.0834,50.364a.9976.9976,0,0,1-1.0392,1.7031l-8.1564-4.9714a.9976.9976,0,0,1,1.0392-1.7031Z"/><path class="b" d="M57.2709,52.0671a.9976.9976,0,1,1-1.0392-1.7031l8.1564-4.9714a.9976.9976,0,0,1,1.0392,1.7031Z"/><path class="i" d="M36.218,48.5345c2.9854,0,5.4053,1.6807,5.4053,3.7537s-2.42,3.7536-5.4053,3.7536-5.4054-1.6806-5.4054-3.7536S33.2325,48.5345,36.218,48.5345Z"/><path class="b" d="M36.218,47.5345a7.7638,7.7638,0,0,1,4.3886,1.279l.0025.002.0014-.002a4.0055,4.0055,0,0,1,0,6.9494c-.02.0142-.0408.0269-.0615.0394a8.1772,8.1772,0,0,1-8.72-.0394l-.0026-.002-.0014.002a4.0055,4.0055,0,0,1,0-6.9494c.02-.0142.0408-.027.0615-.0394a7.7922,7.7922,0,0,1,4.3311-1.24Zm3.2533,2.918a6.2353,6.2353,0,0,0-6.4585-.0329l-.0468.0346a2.0348,2.0348,0,0,0,0,3.668l-.0014.0017a6.2353,6.2353,0,0,0,6.4585.0329l.0468-.0346a2.0348,2.0348,0,0,0,0-3.668Z"/><path class="i" d="M52.83,48.5345c2.9855,0,5.4054,1.6807,5.4054,3.7537s-2.42,3.7536-5.4054,3.7536-5.4054-1.6806-5.4054-3.7536S49.8447,48.5345,52.83,48.5345Z"/><path class="b" d="M52.83,47.5345a7.7634,7.7634,0,0,1,4.3886,1.279l.0026.002.0014-.002a4.0055,4.0055,0,0,1,0,6.9494c-.02.0142-.0408.0269-.0615.0394a8.1774,8.1774,0,0,1-8.72-.0394l-.0025-.002-.0015.002a4.0056,4.0056,0,0,1,0-6.9494c.02-.0142.0409-.027.0616-.0394a7.7921,7.7921,0,0,1,4.331-1.24Zm3.2533,2.918A6.2351,6.2351,0,0,0,49.625,50.42l-.0468.0346a2.0348,2.0348,0,0,0,0,3.668l-.0014.0017a6.2351,6.2351,0,0,0,6.4584.0329l.0468-.0346a2.0348,2.0348,0,0,0,0-3.668Z"/></svg>