<svg width="89.0481px" height="89.0481px" viewBox="0 0 89.0481 89.0481" xmlns="http://www.w3.org/2000/svg"><defs><style>.a{fill:#c7c4e2;}.b,.f{fill:#231f20;}.b,.c,.e,.g,.h{fill-rule:evenodd;}.c{fill:#56c5d0;}.d,.e{fill:#f9ddd1;}.g{fill:#f6adcd;}.h{fill:#d1d3d4;}</style></defs><circle class="a" cx="44.5241" cy="44.524" r="43.524"/><path class="b" d="M44.5241,0a44.5249,44.5249,0,1,1-31.483,13.041A44.3855,44.3855,0,0,1,44.5241,0Zm30.069,14.455A42.5243,42.5243,0,1,0,87.048,44.524,42.3917,42.3917,0,0,0,74.5931,14.455Z"/><path class="c" d="M64.0851,83.3771a43.5732,43.5732,0,0,1-39.1221,0c-.0516-.5808-.08-1.1679-.08-1.762a19.6407,19.6407,0,0,1,39.2814,0C64.1648,82.2092,64.1367,82.7963,64.0851,83.3771Z"/><path class="b" d="M64.5344,84.2677a44.467,44.467,0,0,1-40.0207,0,.9977.9977,0,0,1-.5479-.8659c-.0258-.2988-.0456-.5854-.0581-.8575-.0159-.35-.0244-.6625-.0244-.9292a20.6408,20.6408,0,0,1,41.2815,0c0,.2667-.0085.5788-.0244.9292-.0133.29-.0348.5978-.0632.9187a.995.995,0,0,1-.5437.803l.0009.0017ZM54.36,85.87a42.2255,42.2255,0,0,0,8.7738-3.1349l.0145-.2772c.01-.2364.0164-.5159.0164-.843a18.6407,18.6407,0,1,0-37.2813,0c0,.3271.006.6066.0165.843l.0144.2772A42.686,42.686,0,0,0,54.36,85.87Z"/><circle class="d" cx="44.5241" cy="66.439" r="7.8845" transform="translate(-33.9387 50.9428) rotate(-45)"/><path class="b" d="M44.5241,57.5543a8.8855,8.8855,0,1,1-6.2822,2.6025,8.8564,8.8564,0,0,1,6.2822-2.6025Zm4.8682,4.0164a6.8852,6.8852,0,1,0,2.0163,4.8683A6.8634,6.8634,0,0,0,49.3923,61.5707Z"/><path class="e" d="M63.5386,47.3567a4.9312,4.9312,0,1,1-4.9312,4.9311A4.9309,4.9309,0,0,1,63.5386,47.3567Z"/><path class="b" d="M63.5386,46.3566a5.9317,5.9317,0,1,1-4.1939,1.7374,5.913,5.913,0,0,1,4.1939-1.7374Zm2.78,3.1513a3.9322,3.9322,0,1,0,1.1512,2.78A3.92,3.92,0,0,0,66.3185,49.5079Z"/><path class="e" d="M25.51,47.3567a4.9312,4.9312,0,1,1-4.9311,4.9311A4.931,4.931,0,0,1,25.51,47.3567Z"/><path class="b" d="M25.51,46.3566a5.9319,5.9319,0,1,1-4.1938,1.7374A5.9134,5.9134,0,0,1,25.51,46.3566Zm2.78,3.1513a3.9324,3.9324,0,1,0,1.1511,2.78A3.92,3.92,0,0,0,28.29,49.5079Z"/><circle class="d" cx="44.5241" cy="47.126" r="19.5001"/><path class="b" d="M44.5241,26.6258A20.501,20.501,0,1,1,30.0285,32.63a20.4366,20.4366,0,0,1,14.4956-6.0046Zm13.0816,7.4185A18.5007,18.5007,0,1,0,63.0241,47.126,18.4427,18.4427,0,0,0,57.6057,34.0443Z"/><path class="b" d="M36.18,49.7565a2.5314,2.5314,0,1,1-2.5313,2.5313A2.5313,2.5313,0,0,1,36.18,49.7565Z"/><path class="b" d="M52.8676,49.7565a2.5314,2.5314,0,1,1-2.5314,2.5313A2.5313,2.5313,0,0,1,52.8676,49.7565Z"/><path class="b" d="M35.9929,38.0077a.8672.8672,0,1,1-.8671.8672A.8673.8673,0,0,1,35.9929,38.0077Z"/><path class="b" d="M33.4616,39.8834a.8672.8672,0,1,1-.8671.8672A.8673.8673,0,0,1,33.4616,39.8834Z"/><path class="b" d="M33.4616,37.0241a.8672.8672,0,1,1-.8671.8671A.8673.8673,0,0,1,33.4616,37.0241Z"/><path class="b" d="M33.4616,34.1648a.8672.8672,0,1,1-.8671.8671A.8673.8673,0,0,1,33.4616,34.1648Z"/><path class="b" d="M30.93,42.5554a.8671.8671,0,1,1-.8671.8671A.8673.8673,0,0,1,30.93,42.5554Z"/><path class="b" d="M30.93,39.6961a.8671.8671,0,1,1-.8671.8671A.8673.8673,0,0,1,30.93,39.6961Z"/><path class="b" d="M30.93,36.8368a.8671.8671,0,1,1-.8671.8671A.8673.8673,0,0,1,30.93,36.8368Z"/><circle class="f" cx="28.3989" cy="47.2192" r="0.8671"/><circle class="f" cx="28.3989" cy="44.3599" r="0.8671"/><circle class="f" cx="28.3989" cy="41.5006" r="0.8671"/><path class="g" d="M34.7542,30.4854c1.1355,7.1385,5.5122,9.0185,11.3116,12.3325-6.2512-7.5977-.775-10.7487,2.6745-6.8392,1.6356,1.8539,2.5838,6.8077,2.041,10.8235,3.6592-1.2279,4.7072-6.0355,4.4532-9.0847,3.76,1.4646,5.4714,6.6243,3.9847,14.4751,13.528-8.1315,6.1143-24.4026-7.6839-27.5715C42.9021,22.638,33.9619,25.5053,34.7542,30.4854Z"/><path class="b" d="M35.7387,30.3293c.8172,5.1372,3.5152,7.3757,7.2666,9.5967a6.56,6.56,0,0,1-.709-3.9544,3.3323,3.3323,0,0,1,.9692-1.8127,3.1694,3.1694,0,0,1,1.7646-.8277l.0394-.0046a5.2188,5.2188,0,0,1,4.4169,1.9919,11.2006,11.2006,0,0,1,2.075,5.0936,21.86,21.86,0,0,1,.3619,4.5992,5.86,5.86,0,0,0,1.3658-1.8453,10.8078,10.8078,0,0,0,.9493-5.3666,1,1,0,0,1,1.4338-.98,7.9291,7.9291,0,0,1,4.5266,5.6333,20.1089,20.1089,0,0,1,.358,7.6158,12.0389,12.0389,0,0,0,4.5448-6.7708,11.229,11.229,0,0,0,.0544-4.6565,14.1015,14.1015,0,0,0-1.79-4.5706,19.0605,19.0605,0,0,0-12.054-8.4761,23.3224,23.3224,0,0,0-8.7174-.3532,13.2312,13.2312,0,0,0-4.758,1.6024A4.1616,4.1616,0,0,0,35.769,29.29a2.7081,2.7081,0,0,0-.03,1.0392ZM44.178,42.8975C38.84,39.8951,34.888,37.6721,33.77,30.6416a4.6852,4.6852,0,0,1,.0536-1.7971A6.07,6.07,0,0,1,36.798,25.14a15.2148,15.2148,0,0,1,5.4847-1.8684,25.345,25.345,0,0,1,9.4754.3765,21.0815,21.0815,0,0,1,13.3194,9.3985,16.0892,16.0892,0,0,1,2.04,5.2186,13.2006,13.2006,0,0,1-.07,5.4774c-.7977,3.4741-3.0983,6.7584-7.28,9.2829a.9973.9973,0,0,1-1.5287-1.0168,20.51,20.51,0,0,0,.0382-9.0334A6.9259,6.9259,0,0,0,56.24,39.4684a12.477,12.477,0,0,1-1.1614,4.5729,6.9318,6.9318,0,0,1-3.94,3.6924.9975.9975,0,0,1-1.3453-1.0644A19.1113,19.1113,0,0,0,49.6,40.78a9.328,9.328,0,0,0-1.6062-4.1406,3.2779,3.2779,0,0,0-2.677-1.3331l-.0139.0022a1.2029,1.2029,0,0,0-.67.3039,1.36,1.36,0,0,0-.3756.7424c-.2369,1.1988.3833,3.1533,2.5526,5.7994a.9972.9972,0,0,1-1.2362,1.5313C45.3084,43.5333,44.7432,43.2153,44.178,42.8975Z"/><path class="h" d="M24.7014,56.2887h0a1.8223,1.8223,0,0,1,1.8173,1.8173v2.9106a1.8223,1.8223,0,0,1-1.8173,1.8173h0a1.8223,1.8223,0,0,1-1.8173-1.8173V58.106A1.8223,1.8223,0,0,1,24.7014,56.2887Z"/><path class="b" d="M24.7014,55.2886a2.8231,2.8231,0,0,1,2.8173,2.8174v2.9106a2.8174,2.8174,0,0,1-5.6347,0V58.106a2.8232,2.8232,0,0,1,2.8174-2.8174Zm.5766,2.2408a.8172.8172,0,0,0-1.3938.5766v2.9106a.8172.8172,0,0,0,1.6344,0V58.106A.8155.8155,0,0,0,25.278,57.5294Z"/></svg>