<svg width="89.0482px" height="89.0482px" viewBox="0 0 89.0482 89.0482" xmlns="http://www.w3.org/2000/svg"><defs><style>.a{fill:#f9aa8f;}.b{fill:#231f20;}.b,.c,.e,.f{fill-rule:evenodd;}.c{fill:#fff685;}.d,.e{fill:#b09473;}.f{fill:#58595b;}</style></defs><circle class="a" cx="44.524" cy="44.5241" r="43.524"/><path class="b" d="M44.524,0A44.5249,44.5249,0,1,1,13.041,13.0411,44.3854,44.3854,0,0,1,44.524,0ZM74.5931,14.455A42.5244,42.5244,0,1,0,87.048,44.5241,42.3918,42.3918,0,0,0,74.5931,14.455Z"/><path class="c" d="M64.0851,83.3772a43.5732,43.5732,0,0,1-39.1221,0c-.0516-.5808-.08-1.1679-.08-1.762a19.6407,19.6407,0,1,1,39.2814,0C64.1647,82.2093,64.1367,82.7964,64.0851,83.3772Z"/><path class="b" d="M64.5344,84.2678a44.467,44.467,0,0,1-40.0207,0,.9975.9975,0,0,1-.5479-.866c-.0258-.2987-.0457-.5853-.0581-.8574-.0159-.35-.0244-.6625-.0244-.9292a20.6408,20.6408,0,0,1,41.2815,0c0,.2667-.0085.5788-.0244.9292-.0133.2905-.0349.5978-.0632.9187a.9952.9952,0,0,1-.5437.803l.0009.0017ZM54.36,85.87a42.2216,42.2216,0,0,0,8.7738-3.1348l.0144-.2772c.0105-.2364.0165-.5159.0165-.843a18.6407,18.6407,0,1,0-37.2813,0c0,.3271.006.6066.0164.843l.0145.2772A42.6847,42.6847,0,0,0,54.36,85.87Z"/><circle class="d" cx="44.524" cy="66.439" r="7.8846" transform="translate(-33.9387 50.9428) rotate(-45)"/><path class="b" d="M44.524,57.5544a8.8855,8.8855,0,1,1-6.2821,2.6025,8.8568,8.8568,0,0,1,6.2821-2.6025Zm4.8683,4.0164a6.8855,6.8855,0,1,0,2.0162,4.8682A6.8637,6.8637,0,0,0,49.3923,61.5708Z"/><path class="e" d="M63.5386,47.3568a4.9312,4.9312,0,1,1-4.9312,4.9311A4.9309,4.9309,0,0,1,63.5386,47.3568Z"/><path class="b" d="M63.5386,46.3567a5.9319,5.9319,0,1,1-4.1939,1.7374,5.9133,5.9133,0,0,1,4.1939-1.7374Zm2.78,3.1513a3.9324,3.9324,0,1,0,1.1511,2.78A3.92,3.92,0,0,0,66.3185,49.508Z"/><path class="e" d="M25.51,47.3568a4.9312,4.9312,0,1,1-4.9311,4.9311A4.931,4.931,0,0,1,25.51,47.3568Z"/><path class="b" d="M25.51,46.3567a5.9319,5.9319,0,1,1-4.1938,1.7374A5.9134,5.9134,0,0,1,25.51,46.3567Zm2.78,3.1513a3.9322,3.9322,0,1,0,1.1512,2.78A3.92,3.92,0,0,0,28.2894,49.508Z"/><circle class="d" cx="44.524" cy="47.126" r="19.5001"/><path class="b" d="M44.524,26.6259A20.501,20.501,0,1,1,30.0285,32.63,20.4364,20.4364,0,0,1,44.524,26.6259Zm13.0816,7.4185A18.5,18.5,0,1,0,63.0241,47.126,18.4424,18.4424,0,0,0,57.6056,34.0444Z"/><path class="b" d="M36.18,49.7566a2.5314,2.5314,0,1,1-2.5314,2.5313A2.5313,2.5313,0,0,1,36.18,49.7566Z"/><path class="b" d="M52.8675,49.7566a2.5314,2.5314,0,1,1-2.5313,2.5313A2.5313,2.5313,0,0,1,52.8675,49.7566Z"/><path class="f" d="M36.8716,36.4714c-3.1975-.9082-5.4323-.204-7.0594,2.3111-2.338,3.6139-2.2708,11.7882-1.4879,14.8794l-3.64-1.44c-1.1668-8.6006-1.0007-16.7732,1.5-24.2,8.4376-8.6179,28.1973-8.604,36.6213,0,2.5005,7.4273,2.6666,15.6,1.5,24.2l-3.6405,1.44c.7829-3.0912.85-11.2652-1.4879-14.8794-1.6274-2.5154-3.8605-3.22-7.0591-2.3111C44.6505,38.5935,44.2978,38.581,36.8716,36.4714Z"/><path class="b" d="M36.602,37.4324a6.0966,6.0966,0,0,0-3.54-.14l-.0428.0131a4.6265,4.6265,0,0,0-2.3709,2.02,14.4226,14.4226,0,0,0-1.6634,6.0131,27.1044,27.1044,0,0,0,.3084,8.081.9983.9983,0,0,1-1.3357,1.1707l0,.0011-3.64-1.44a1,1,0,0,1-.6307-.8654,68.6189,68.6189,0,0,1-.6237-12.6553A44.3543,44.3543,0,0,1,25.2385,27.705a.99.99,0,0,1,.2347-.3827l0,0c.0805-.082.1625-.1639.2447-.2447,4.4365-4.3435,11.6223-6.512,18.7821-6.51s14.343,2.1742,18.7721,6.5109c.0819.08.1641.1619.2444.2441a.9935.9935,0,0,1,.2426.4073,44.3583,44.3583,0,0,1,2.1677,11.9015,68.6834,68.6834,0,0,1-.633,12.7239.9982.9982,0,0,1-.6222.7949l.0008.0019-3.6405,1.44a.9995.9995,0,0,1-1.3263-1.2109,27.2514,27.2514,0,0,0,.2987-8.0422,14.4181,14.4181,0,0,0-1.6633-6.0128,4.6044,4.6044,0,0,0-2.4092-2.0333l-.0037-.0012,0,.0012a6.0946,6.0946,0,0,0-3.54.14c-3.816,1.0842-5.82,1.6237-7.9079,1.622-2.09-.0014-4.0821-.544-7.8772-1.622ZM32.4445,35.394a7.98,7.98,0,0,1,4.6967.1165c3.6309,1.0312,5.5295,1.5506,7.338,1.5517,1.8111.0014,3.7182-.5145,7.3687-1.5517a7.979,7.979,0,0,1,4.697-.1168l0,.0011a6.5134,6.5134,0,0,1,3.4679,2.8446,16.2945,16.2945,0,0,1,1.9758,6.9035,33.4533,33.4533,0,0,1-.036,6.9347l1.4411-.57a65.8945,65.8945,0,0,0,.5409-11.7751,42.5339,42.5339,0,0,0-2.0007-11.173l-.06-.0595C57.8321,24.543,51.1781,22.5607,44.5,22.5593s-13.3356,1.9769-17.3835,5.94l-.06.0595a42.5452,42.5452,0,0,0-2.001,11.1736,65.92,65.92,0,0,0,.5409,11.7751l1.4408.57a33.4712,33.4712,0,0,1-.036-6.9344,16.3,16.3,0,0,1,1.9758-6.9038,6.5334,6.5334,0,0,1,3.4146-2.8264Z"/><path class="f" d="M44.6164,58c-3.2-1.2436-8.7361-.37-8.7361,3.4v4.2485c0,2.7822,4.6976,4.1851,8.69,4.2067,4.0227.0218,8.782-1.3567,8.782-4.1364V61.33c0-3.7605-5.5871-4.5527-8.7361-3.3293ZM43.022,64.3391v1.683a9.8281,9.8281,0,0,1-3.5476-.7631V61.79c1.3311-1.1081,8.9481-1.1121,10.2841,0V65.259a9.8048,9.8048,0,0,1-3.5479.7636V64.3391Z"/><path class="b" d="M44.257,58.93a7.6133,7.6133,0,0,0-2.6974-.4593,7.2416,7.2416,0,0,0-2.9262.5661,2.9034,2.9034,0,0,0-1.6028,1.5024,2.3635,2.3635,0,0,0-.15.8609v4.2485c0,.82.743,1.51,1.84,2.041a14.42,14.42,0,0,0,5.8541,1.17h.0014l.0887,0v-.0039a15.075,15.075,0,0,0,5.4579-.9525c1.3076-.5377,2.2263-1.2739,2.2339-2.1707h-.0039V61.33a2.3,2.3,0,0,0-.146-.8391,2.8409,2.8409,0,0,0-1.5857-1.4726,7.3039,7.3039,0,0,0-2.9109-.55,7.7393,7.7393,0,0,0-2.734.4627.9957.9957,0,0,1-.7189,0ZM41.56,56.4707a9.8592,9.8592,0,0,1,3.0568.4709,10.0036,10.0036,0,0,1,3.0935-.4743,9.3043,9.3043,0,0,1,3.7233.73,4.7649,4.7649,0,0,1,2.6328,2.5742,4.265,4.265,0,0,1,.2866,1.5579v4.4028h-.004v.0039c-.01,1.85-1.4369,3.1751-3.4682,4.01a17.116,17.116,0,0,1-6.2158,1.1089v-.004l-.0941,0h-.0039a16.4866,16.4866,0,0,1-6.7136-1.3646c-1.7725-.8577-2.9727-2.1279-2.9727-3.8381V61.4a4.3283,4.3283,0,0,1,.2908-1.58,4.837,4.837,0,0,1,2.6419-2.6039,9.2431,9.2431,0,0,1,3.7466-.7458Zm1.4624,6.8684a1,1,0,0,0-1,1v.5687c-.3906-.0533-.7844-.118-1.139-.1942-.1533-.0329-.2919-.0649-.4084-.0947V62.371a15.5163,15.5163,0,0,1,4.1462-.4138,15.4427,15.4427,0,0,1,4.1377.4136V64.62c-.117.03-.2559.0618-.41.0949-.3543.0763-.7477.1412-1.1378.1942v-.57a1,1,0,0,0-1-1Zm2.1886,2H44.022v.6829h-.0042q0,.0425-.0037.0859a.9963.9963,0,0,1-1.078.9062,22.0322,22.0322,0,0,1-2.467-.3475,4.5629,4.5629,0,0,1-1.5013-.5454,1,1,0,0,1-.4935-.8623V61.79h.0046a.9927.9927,0,0,1,.3588-.7657c.8535-.71,3.3517-1.0669,5.783-1.0669,2.3193,0,4.6973.3242,5.65.9739a1,1,0,0,1,.4876.8587V65.259H50.754a.9928.9928,0,0,1-.3589.7656,4.0217,4.0217,0,0,1-1.6327.6429,21.5646,21.5646,0,0,1-2.3686.3385,1.0011,1.0011,0,0,1-1.1832-.9834Z"/></svg>