<svg width="89.0482px" height="89.0482px" viewBox="0 0 89.0482 89.0482" xmlns="http://www.w3.org/2000/svg"><defs><style>.a{fill:#94d4ce;}.b{fill:#231f20;}.b,.c,.d,.f{fill-rule:evenodd;}.c{fill:#554846;}.d{fill:#f68a35;}.e,.f{fill:#b09473;}</style></defs><circle class="a" cx="44.524" cy="44.5241" r="43.524"/><path class="b" d="M44.524,0A44.5249,44.5249,0,1,1,13.041,13.0411,44.3854,44.3854,0,0,1,44.524,0ZM74.5931,14.455A42.5244,42.5244,0,1,0,87.048,44.5241,42.3921,42.3921,0,0,0,74.5931,14.455Z"/><path class="c" d="M44.4673,15.5438H44.58a6.9744,6.9744,0,0,1,6.9741,6.9741q0,.3407-.0323.6727a6.9745,6.9745,0,1,1,11.884,7.245A6.9754,6.9754,0,1,1,68.5542,43.38a6.9742,6.9742,0,1,1-2.2136,13.6951,6.9743,6.9743,0,1,1-10.2061,9.01,22.916,22.916,0,0,1-23.2492.05,6.9744,6.9744,0,1,1-10.1781-9.06A6.9746,6.9746,0,1,1,20.4936,43.38a6.9753,6.9753,0,1,1,5.148-12.9444,6.9745,6.9745,0,1,1,11.884-7.245q-.0319-.3321-.0323-.6727A6.9744,6.9744,0,0,1,44.4673,15.5438Z"/><path class="b" d="M44.4673,14.5438H44.58A7.9471,7.9471,0,0,1,50.2152,16.88l.0036.0037a7.9694,7.9694,0,0,1,2.0912,3.67,7.9593,7.9593,0,0,1,11.03.2259l.0037.0037a7.9739,7.9739,0,0,1,1.9644,8.0439l-.0107.0343A7.9661,7.9661,0,0,1,71.9654,31.13l.0037.0037a7.97,7.97,0,0,1-.68,11.8749,7.9677,7.9677,0,0,1,2.5169,12.97l-.0037.0036a7.95,7.95,0,0,1-4.9314,2.3052,7.9653,7.9653,0,0,1-.99,10.0661l-.0037.0037a7.9685,7.9685,0,0,1-12.0736-.9374,23.8478,23.8478,0,0,1-22.5912.0419,7.9671,7.9671,0,0,1-12.0425.8955l-.0036-.0037a7.9693,7.9693,0,0,1-1.47-9.25,7.8107,7.8107,0,0,1,.48-.8164,7.9478,7.9478,0,0,1-4.9315-2.3052l-.0036-.0036a7.9764,7.9764,0,0,1,2.5168-12.97,7.9643,7.9643,0,0,1-.68-11.8749l.0037-.0037A7.9661,7.9661,0,0,1,23.75,28.8613L23.74,28.827a7.9739,7.9739,0,0,1,1.9644-8.0439l.0037-.0037a7.9641,7.9641,0,0,1,11.03-.2259,7.97,7.97,0,0,1,2.0911-3.67l.0037-.0037a7.9466,7.9466,0,0,1,5.6347-2.3357Zm.1131,2h-.1131a5.9675,5.9675,0,0,0-5.974,5.974c0,.1378.0017.2341.0043.2917.0048.1037.0119.2.02.2871h0a.9962.9962,0,0,1-1.8748.5548A6.0133,6.0133,0,0,0,34.4347,21.3a5.9778,5.9778,0,0,0-7.9767,8.5609h0a.998.998,0,0,1-1.2342,1.4806,5.9124,5.9124,0,0,0-1.2175-.4094,6.0216,6.0216,0,0,0-1.2889-.1383,5.9764,5.9764,0,0,0-1.9335,11.6314.9975.9975,0,0,1-.2393,1.95,5.9753,5.9753,0,0,0,.336,11.9413,6.0876,6.0876,0,0,0,.7934-.0491,5.9974,5.9974,0,0,0,.7755-.1581l.0009.0031a.9955.9955,0,0,1,.843,1.7665,6.0088,6.0088,0,0,0-1.815,2.13,5.98,5.98,0,0,0,8.3384,7.8732,6.0108,6.0108,0,0,0,2.1977-2.236l.002.0012.01-.0168a.9967.9967,0,0,1,1.3635-.3554,21.8663,21.8663,0,0,0,22.2372-.05l.0275-.0156a.9986.9986,0,0,1,1.3555.3946A6.0044,6.0044,0,0,0,59.21,67.8685,5.9776,5.9776,0,0,0,67.57,60.01a6.0112,6.0112,0,0,0-1.7535-2.0846.9988.9988,0,0,1,.7824-1.815,6.0043,6.0043,0,0,0,.7755.1581,6.0865,6.0865,0,0,0,.7934.0491,5.9753,5.9753,0,0,0,.3359-11.9413v0a.997.997,0,0,1-.2656-1.9412,5.9782,5.9782,0,0,0-3.196-11.5022,5.8959,5.8959,0,0,0-1.205.4037.9982.9982,0,0,1-1.247-1.4749A5.98,5.98,0,0,0,54.6131,21.3a6.0146,6.0146,0,0,0-2.1932,2.323.9966.9966,0,0,1-1.89-.5267c.0082-.0867.0153-.1825.02-.2871.0026-.0576.0043-.1539.0043-.2917a5.9675,5.9675,0,0,0-5.9741-5.974Z"/><path class="d" d="M64.0851,83.3772a43.5732,43.5732,0,0,1-39.1221,0c-.0516-.5808-.08-1.1679-.08-1.762a19.6407,19.6407,0,1,1,39.2814,0C64.1647,82.2093,64.1367,82.7964,64.0851,83.3772Z"/><path class="b" d="M64.5344,84.2678a44.467,44.467,0,0,1-40.0207,0,.9975.9975,0,0,1-.5479-.866c-.0258-.2987-.0457-.5853-.0581-.8574-.0159-.35-.0244-.6625-.0244-.9292a20.6408,20.6408,0,0,1,41.2815,0c0,.2667-.0085.5788-.0244.9292-.0133.2905-.0349.5978-.0632.9187a.995.995,0,0,1-.5437.803l.0009.0017ZM54.36,85.87a42.2216,42.2216,0,0,0,8.7738-3.1348l.0144-.2772c.0105-.2364.0165-.5159.0165-.843a18.6407,18.6407,0,1,0-37.2813,0c0,.3271.006.6066.0164.843l.0145.2772A42.6847,42.6847,0,0,0,54.36,85.87Z"/><circle class="e" cx="44.524" cy="66.439" r="7.8846" transform="translate(-33.9387 50.9428) rotate(-45)"/><path class="b" d="M44.524,57.5544a8.8855,8.8855,0,1,1-6.2821,2.6025,8.8568,8.8568,0,0,1,6.2821-2.6025Zm4.8683,4.0164a6.8855,6.8855,0,1,0,2.0162,4.8682A6.8637,6.8637,0,0,0,49.3923,61.5708Z"/><path class="f" d="M63.5386,47.3568a4.9312,4.9312,0,1,1-4.9312,4.9311A4.9309,4.9309,0,0,1,63.5386,47.3568Z"/><path class="b" d="M63.5386,46.3567a5.9319,5.9319,0,1,1-4.1939,1.7374,5.9133,5.9133,0,0,1,4.1939-1.7374Zm2.78,3.1513a3.9324,3.9324,0,1,0,1.1511,2.78A3.92,3.92,0,0,0,66.3185,49.508Z"/><path class="f" d="M25.51,47.3568a4.9312,4.9312,0,1,1-4.9311,4.9311A4.931,4.931,0,0,1,25.51,47.3568Z"/><path class="b" d="M25.51,46.3567a5.9319,5.9319,0,1,1-4.1938,1.7374A5.9134,5.9134,0,0,1,25.51,46.3567Zm2.78,3.1513a3.9324,3.9324,0,1,0,1.1511,2.78A3.92,3.92,0,0,0,28.29,49.508Z"/><circle class="e" cx="44.524" cy="47.126" r="19.5001"/><path class="b" d="M44.524,26.6259A20.501,20.501,0,1,1,30.0285,32.63,20.4368,20.4368,0,0,1,44.524,26.6259Zm13.0816,7.4185A18.5,18.5,0,1,0,63.0241,47.126,18.4427,18.4427,0,0,0,57.6056,34.0444Z"/><path class="b" d="M32.95,50.1393a.9975.9975,0,1,1-1.0392,1.703l-8.1564-4.9714a.9975.9975,0,1,1,1.0392-1.703Z"/><path class="b" d="M57.1374,51.8423a.9975.9975,0,1,1-1.0392-1.703l8.1564-4.9714a.9975.9975,0,0,1,1.0392,1.703Z"/><path class="c" d="M44.407,25.2017c4.479,0,6.7943,1.2189,11.086,2.344,3.5436.9289,6.6328,2.97,6.6328,6.6328a6.6333,6.6333,0,0,1-12.1289,3.7142,6.6344,6.6344,0,0,1-10.9925,0,6.6332,6.6332,0,0,1-12.1289-3.714c0-3.6632,3.7917-5.75,6.6328-6.6328C37.13,26.4209,40.6136,25.2017,44.407,25.2017Z"/><path class="b" d="M60.929,35.6738a.9959.9959,0,0,1,1.9219.5233,7.6218,7.6218,0,0,1-12.854,3.2737A7.615,7.615,0,0,1,39.0044,39.47,7.6284,7.6284,0,0,1,26.15,36.1971a.9959.9959,0,1,1,1.9219-.5233,5.6414,5.6414,0,0,0,10.0982,1.6741.9961.9961,0,0,1,1.6582-.0142,5.67,5.67,0,0,0,2.0345,1.8236,5.6429,5.6429,0,0,0,7.3-1.8091.9963.9963,0,0,1,1.6583-.0142,5.6683,5.6683,0,0,0,2.0344,1.8236,5.6392,5.6392,0,0,0,8.0734-3.4838Z"/><path class="b" d="M46.6784,49.796A18.7613,18.7613,0,0,1,57.6626,46.69c1.9188.1026,2.6739,1.05,2.4313,3.4574a11.6022,11.6022,0,0,1-3.03,6.2059,7.1546,7.1546,0,0,1-9.0717.6018A8.8369,8.8369,0,0,1,45.6352,53.87a1.4339,1.4339,0,0,0-2.2223,0,8.8369,8.8369,0,0,1-2.3565,3.0855,7.155,7.155,0,0,1-9.072-.6018,11.6043,11.6043,0,0,1-3.03-6.2059c-.2427-2.4078.5125-3.3548,2.4313-3.4574A18.7613,18.7613,0,0,1,42.3694,49.796C44.5368,51.24,44.687,51.1226,46.6784,49.796Z"/></svg>