<svg width="89.0481px" height="89.0481px" viewBox="0 0 89.0481 89.0481" xmlns="http://www.w3.org/2000/svg"><defs><style>.a{fill:#bad762;}.b,.g{fill:#231f20;}.b,.c,.e,.f{fill-rule:evenodd;}.c{fill:#58595b;}.d,.e{fill:#806a50;}.f{fill:#a54686;}.h{fill:#d1d3d4;}</style></defs><circle class="a" cx="44.524" cy="44.5241" r="43.524"/><path class="b" d="M44.524,0A44.5249,44.5249,0,1,1,13.041,13.0411,44.3854,44.3854,0,0,1,44.524,0ZM74.5931,14.455A42.5243,42.5243,0,1,0,87.048,44.5241,42.3919,42.3919,0,0,0,74.5931,14.455Z"/><path class="c" d="M64.0851,83.3771a43.5732,43.5732,0,0,1-39.1221,0c-.0516-.5808-.08-1.1678-.08-1.762a19.6407,19.6407,0,1,1,39.2814,0C64.1647,82.2093,64.1367,82.7963,64.0851,83.3771Z"/><path class="b" d="M64.5344,84.2678a44.4681,44.4681,0,0,1-40.0207,0,.9969.9969,0,0,1-.5479-.866c-.0258-.2991-.0457-.5856-.0581-.8575-.0159-.35-.0244-.6624-.0244-.9292a20.6408,20.6408,0,0,1,41.2815,0c0,.2668-.0085.5788-.0244.9292-.0133.29-.0349.5976-.0632.9187a.9953.9953,0,0,1-.5437.8031l.0009.0017ZM54.36,85.87a42.2274,42.2274,0,0,0,8.7738-3.1348l.0144-.2773c.0105-.2364.0165-.5159.0165-.843a18.6407,18.6407,0,1,0-37.2813,0c0,.3271.006.6066.0164.843l.0145.2773A42.6866,42.6866,0,0,0,54.36,85.87Z"/><circle class="d" cx="44.524" cy="66.439" r="7.8846" transform="matrix(0.9246, -0.3808, 0.3808, 0.9246, -21.9478, 21.964)"/><path class="b" d="M44.524,57.5544a8.8853,8.8853,0,1,1-6.2821,2.6024,8.8567,8.8567,0,0,1,6.2821-2.6024Zm4.8683,4.0164a6.8853,6.8853,0,1,0,2.0162,4.8682A6.8633,6.8633,0,0,0,49.3923,61.5708Z"/><path class="e" d="M63.5386,47.3567a4.9312,4.9312,0,1,1-4.9312,4.9312A4.931,4.931,0,0,1,63.5386,47.3567Z"/><path class="b" d="M63.5386,46.3567a5.9317,5.9317,0,1,1-4.1939,1.7373,5.9132,5.9132,0,0,1,4.1939-1.7373Zm2.78,3.1512a3.9324,3.9324,0,1,0,1.1511,2.78A3.92,3.92,0,0,0,66.3185,49.5079Z"/><path class="e" d="M25.51,47.3567a4.9312,4.9312,0,1,1-4.9311,4.9312A4.931,4.931,0,0,1,25.51,47.3567Z"/><path class="b" d="M25.51,46.3567a5.9317,5.9317,0,1,1-4.1938,1.7373A5.9133,5.9133,0,0,1,25.51,46.3567Zm2.78,3.1512a3.9322,3.9322,0,1,0,1.1512,2.78A3.92,3.92,0,0,0,28.2894,49.5079Z"/><circle class="d" cx="44.524" cy="47.126" r="19.5001"/><path class="b" d="M44.524,26.6258A20.5012,20.5012,0,1,1,30.0285,32.63,20.4365,20.4365,0,0,1,44.524,26.6258Zm13.0816,7.4186A18.5,18.5,0,1,0,63.0241,47.126,18.442,18.442,0,0,0,57.6056,34.0444Z"/><path class="b" d="M36.18,49.7565a2.5314,2.5314,0,1,1-2.5314,2.5314A2.5313,2.5313,0,0,1,36.18,49.7565Z"/><path class="b" d="M52.8675,49.7565a2.5314,2.5314,0,1,1-2.5313,2.5314A2.5313,2.5313,0,0,1,52.8675,49.7565Z"/><path class="f" d="M44.5237,22.4768h0a5.7035,5.7035,0,0,1,5.6872,5.6868v8.3106a5.7035,5.7035,0,0,1-5.6872,5.6869h0a5.7032,5.7032,0,0,1-5.6868-5.6869V28.1636A5.7032,5.7032,0,0,1,44.5237,22.4768Z"/><path class="b" d="M44.5237,21.4767a6.665,6.665,0,0,1,4.72,1.9635l.0017.002.002-.002a6.6683,6.6683,0,0,1,1.9636,4.7234v8.3106a6.6681,6.6681,0,0,1-1.9636,4.7234c-.0193.0193-.0391.0377-.0595.055a6.6852,6.6852,0,0,1-11.3511-4.7784V28.1636a6.7041,6.7041,0,0,1,6.6869-6.6869Zm3.3115,3.3758a4.6887,4.6887,0,0,0-7.9983,3.3111v8.3106a4.6831,4.6831,0,0,0,7.9515,3.3577l.0451-.0482a4.6736,4.6736,0,0,0,1.3773-3.3095V28.1636a4.6732,4.6732,0,0,0-1.3773-3.3094Z"/><circle class="g" cx="35.9929" cy="38.5753" r="0.8671"/><path class="b" d="M35.9929,34.8488a.8672.8672,0,1,1-.8671.8672A.8673.8673,0,0,1,35.9929,34.8488Z"/><path class="b" d="M35.9929,31.99a.8672.8672,0,1,1-.8671.8672A.8673.8673,0,0,1,35.9929,31.99Z"/><path class="b" d="M33.4615,39.5838a.8672.8672,0,1,1-.8671.8672A.8674.8674,0,0,1,33.4615,39.5838Z"/><path class="b" d="M33.4615,36.7245a.8672.8672,0,1,1-.8671.8671A.8674.8674,0,0,1,33.4615,36.7245Z"/><path class="b" d="M33.4615,33.8652a.8672.8672,0,1,1-.8671.8671A.8674.8674,0,0,1,33.4615,33.8652Z"/><circle class="g" cx="30.9302" cy="43.1229" r="0.8671"/><circle class="g" cx="30.9302" cy="40.2636" r="0.8671"/><circle class="g" cx="30.9302" cy="37.4043" r="0.8671"/><path class="b" d="M28.3989,46.0525a.8671.8671,0,1,1-.8672.8671A.8673.8673,0,0,1,28.3989,46.0525Z"/><path class="b" d="M28.3989,43.1932a.8671.8671,0,1,1-.8672.8671A.8673.8673,0,0,1,28.3989,43.1932Z"/><path class="b" d="M28.3989,40.3339a.8671.8671,0,1,1-.8672.8671A.8673.8673,0,0,1,28.3989,40.3339Z"/><circle class="g" cx="53.0552" cy="38.5753" r="0.8671"/><path class="b" d="M53.0552,34.8488a.8672.8672,0,1,0,.8671.8672A.8673.8673,0,0,0,53.0552,34.8488Z"/><path class="b" d="M53.0552,31.99a.8672.8672,0,1,0,.8671.8672A.8673.8673,0,0,0,53.0552,31.99Z"/><path class="b" d="M55.5865,39.5838a.8672.8672,0,1,0,.8671.8672A.8673.8673,0,0,0,55.5865,39.5838Z"/><path class="b" d="M55.5865,36.7245a.8672.8672,0,1,0,.8671.8671A.8673.8673,0,0,0,55.5865,36.7245Z"/><path class="b" d="M55.5865,33.8652a.8672.8672,0,1,0,.8671.8671A.8673.8673,0,0,0,55.5865,33.8652Z"/><path class="b" d="M58.1179,42.2558a.8671.8671,0,1,0,.8671.8671A.8673.8673,0,0,0,58.1179,42.2558Z"/><path class="b" d="M58.1179,39.3965a.8671.8671,0,1,0,.8671.8671A.8673.8673,0,0,0,58.1179,39.3965Z"/><path class="b" d="M58.1179,36.5372a.8671.8671,0,1,0,.8671.8671A.8673.8673,0,0,0,58.1179,36.5372Z"/><circle class="g" cx="60.6492" cy="46.9196" r="0.8671"/><circle class="g" cx="60.6492" cy="44.0603" r="0.8671"/><circle class="g" cx="60.6492" cy="41.201" r="0.8671"/><circle class="h" cx="66.6116" cy="57.382" r="2.1382"/><path class="b" d="M66.6116,54.2438a3.1272,3.1272,0,0,1,2.215.9195l.0017.002.002.0017.002.002a3.1273,3.1273,0,0,1-.004,4.43l.002.002a3.1377,3.1377,0,1,1-4.4374-4.4374c.0216-.0215.0437-.0416.0666-.0609a3.127,3.127,0,0,1,2.1521-.8586Zm.8047,2.33a1.1473,1.1473,0,0,0-1.5737-.034l-.0358.0377a1.1381,1.1381,0,0,0,1.61,1.6095l.002.002.0017-.002a1.147,1.147,0,0,0,0-1.6095Z"/></svg>