<svg width="89.0481px" height="89.0481px" viewBox="0 0 89.0481 89.0481" xmlns="http://www.w3.org/2000/svg"><defs><style>.a{fill:#8ed8f8;}.b{fill:#231f20;}.b,.c,.e,.g,.h{fill-rule:evenodd;}.c,.d{fill:#f58220;}.e{fill:#c77eb5;}.f,.g{fill:#f9ddd1;}.h,.i{fill:#f58466;}</style></defs><circle class="a" cx="44.524" cy="44.5241" r="43.524"/><path class="b" d="M44.524,0A44.5249,44.5249,0,1,1,13.041,13.0411,44.3854,44.3854,0,0,1,44.524,0ZM74.5931,14.455A42.5243,42.5243,0,1,0,87.048,44.5241,42.3919,42.3919,0,0,0,74.5931,14.455Z"/><path class="c" d="M12.3772,63.8084c-.9284,5.1,6.7569,8.9711,11.7859,2.1354,8.1581-11.0877-3.8761-17.591-7.2318-12.1331a6.4384,6.4384,0,0,0-.5437,4.1142c.3013,1.9176,1.6268,4.8055.2872,6.544C16.0954,65.2207,14.0272,65.4647,12.3772,63.8084Z"/><path class="b" d="M13.4634,65.7136a3.7307,3.7307,0,0,0,.5941,1.1353,4.47,4.47,0,0,0,1.92,1.4235,5.1048,5.1048,0,0,0,2.6485.2849,7.3863,7.3863,0,0,0,4.7324-3.2034c2.9381-3.9935,3.058-7.2621,1.9335-9.4561a5.7572,5.7572,0,0,0-1.679-1.9814,5.4247,5.4247,0,0,0-2.1724-.9851,3.3438,3.3438,0,0,0-3.6576,1.4029,3.6054,3.6054,0,0,0-.45,1.4037,7.3191,7.3191,0,0,0,.04,2.0347c.0669.4269.1976.9355.3345,1.4689.4949,1.9273,1.063,4.142-.2427,5.8369a1.9787,1.9787,0,0,1-.1672.1939,1.0093,1.0093,0,0,1-.0782.07,3.1989,3.1989,0,0,1-2.2048.7005,4.5608,4.5608,0,0,1-1.55-.33ZM12.4713,68.06a5.56,5.56,0,0,1-1.0826-4.3815.9969.9969,0,0,1,1.6954-.5731,3.714,3.714,0,0,0,.3668.3237,2.8162,2.8162,0,0,0,1.6172.6222,1.2846,1.2846,0,0,0,.7914-.1687l.0233-.0241c.0056-.0056.0037-.0017.0017.0017h0l.0017-.0017c.7115-.9252.2724-2.6362-.11-4.1247-.15-.583-.2923-1.1386-.3737-1.6565a9.3192,9.3192,0,0,1-.0476-2.5971,5.5951,5.5951,0,0,1,.7243-2.1929A5.2692,5.2692,0,0,1,21.8231,50.97a7.4421,7.4421,0,0,1,2.9854,1.3445,7.7539,7.7539,0,0,1,2.2567,2.6765c1.4315,2.793,1.3753,6.8227-2.0974,11.5424a9.3387,9.3387,0,0,1-6.0449,4.0005,7.09,7.09,0,0,1-3.68-.4022,6.47,6.47,0,0,1-2.772-2.0722Zm3.4132-4.2h0l-.0009.0009Z"/><path class="c" d="M76.6709,63.8084c.9283,5.1-6.7569,8.9711-11.7859,2.1354-8.1581-11.0877,3.8761-17.591,7.2318-12.1331a6.4391,6.4391,0,0,1,.5436,4.1142c-.3013,1.9176-1.6268,4.8055-.2871,6.544C72.9527,65.2207,75.0208,65.4647,76.6709,63.8084Z"/><path class="b" d="M77.6593,63.6783A5.5593,5.5593,0,0,1,76.5768,68.06a6.4716,6.4716,0,0,1-2.772,2.0722,7.09,7.09,0,0,1-3.68.4022A9.3387,9.3387,0,0,1,64.08,66.5337c-3.4728-4.72-3.5289-8.7494-2.0974-11.5424A7.7517,7.7517,0,0,1,64.24,52.3148,7.4421,7.4421,0,0,1,67.225,50.97a5.2692,5.2692,0,0,1,5.7433,2.3168,5.5917,5.5917,0,0,1,.7242,2.1929,9.3154,9.3154,0,0,1-.0476,2.5971c-.0813.5176-.2239,1.0732-.3736,1.6565-.3821,1.4885-.8212,3.2-.11,4.1247l.002.0017c-.0017-.0028-.004-.0073.0017-.0017l.0232.0241a1.288,1.288,0,0,0,.7915.1687,2.816,2.816,0,0,0,1.6171-.6222,3.714,3.714,0,0,0,.3668-.3237.9969.9969,0,0,1,1.6954.5731Zm-2.6688,3.1706a3.731,3.731,0,0,0,.5942-1.1353,4.5613,4.5613,0,0,1-1.55.33,3.1985,3.1985,0,0,1-2.2048-.7005,1.0093,1.0093,0,0,1-.0782-.07,1.992,1.992,0,0,1-.1673-.1939c-1.3056-1.6949-.7375-3.91-.2426-5.8369.1369-.5334.2676-1.042.3345-1.4689a7.3191,7.3191,0,0,0,.04-2.0347,3.6038,3.6038,0,0,0-.4505-1.4037,3.3436,3.3436,0,0,0-3.6575-1.4029,5.4251,5.4251,0,0,0-2.1725.9851,5.7559,5.7559,0,0,0-1.6789,1.9814c-1.1246,2.194-1.0046,5.4626,1.9335,9.4561a7.3863,7.3863,0,0,0,4.7324,3.2034,5.1044,5.1044,0,0,0,2.6484-.2849A4.4707,4.4707,0,0,0,74.9905,66.8489Z"/><ellipse class="d" cx="44.524" cy="38.6848" rx="26.8458" ry="22.4486"/><path class="b" d="M44.524,15.2362a30.6125,30.6125,0,0,1,19.6234,6.8094A21.7052,21.7052,0,0,1,72.37,38.6847a21.7072,21.7072,0,0,1-8.2225,16.6394A30.6119,30.6119,0,0,1,44.524,62.1335a30.6123,30.6123,0,0,1-19.6234-6.8094,21.7074,21.7074,0,0,1-8.2224-16.6394,21.7054,21.7054,0,0,1,8.2224-16.6391A30.6129,30.6129,0,0,1,44.524,15.2362Zm18.3422,8.3407a28.6072,28.6072,0,0,0-18.3422-6.34,28.6067,28.6067,0,0,0-18.3421,6.34,19.7373,19.7373,0,0,0-7.5036,15.1078,19.7369,19.7369,0,0,0,7.5036,15.1081,28.6063,28.6063,0,0,0,18.3421,6.34,28.6065,28.6065,0,0,0,18.3422-6.34A19.7372,19.7372,0,0,0,70.37,38.6847,19.7373,19.7373,0,0,0,62.8662,23.5769Z"/><path class="e" d="M64.0851,83.3771a43.5732,43.5732,0,0,1-39.1221,0c-.0516-.5808-.08-1.1678-.08-1.762a19.6407,19.6407,0,1,1,39.2814,0C64.1647,82.2093,64.1367,82.7963,64.0851,83.3771Z"/><path class="b" d="M64.5344,84.2678a44.4681,44.4681,0,0,1-40.0207,0,.9969.9969,0,0,1-.5479-.866c-.0258-.2991-.0457-.5856-.0581-.8575-.0159-.35-.0244-.6624-.0244-.9292a20.6408,20.6408,0,0,1,41.2815,0c0,.2668-.0085.5789-.0244.9292-.0133.29-.0349.5976-.0632.9187a.9953.9953,0,0,1-.5437.8031l.0009.0017ZM54.36,85.87a42.2274,42.2274,0,0,0,8.7738-3.1348l.0144-.2773c.0105-.2364.0165-.5159.0165-.843a18.6407,18.6407,0,1,0-37.2813,0c0,.3271.006.6066.0164.843l.0145.2773A42.6847,42.6847,0,0,0,54.36,85.87Z"/><circle class="f" cx="44.524" cy="66.439" r="7.8846" transform="matrix(0.9246, -0.3808, 0.3808, 0.9246, -21.9478, 21.964)"/><path class="b" d="M44.524,57.5544a8.8855,8.8855,0,1,1-6.2821,2.6025,8.8564,8.8564,0,0,1,6.2821-2.6025Zm4.8683,4.0164a6.8853,6.8853,0,1,0,2.0162,4.8682A6.8633,6.8633,0,0,0,49.3923,61.5708Z"/><path class="g" d="M63.5386,47.3567a4.9312,4.9312,0,1,1-4.9312,4.9312A4.931,4.931,0,0,1,63.5386,47.3567Z"/><path class="b" d="M63.5386,46.3567a5.9317,5.9317,0,1,1-4.1939,1.7373,5.9132,5.9132,0,0,1,4.1939-1.7373Zm2.78,3.1512a3.9324,3.9324,0,1,0,1.1511,2.78A3.92,3.92,0,0,0,66.3185,49.5079Z"/><path class="g" d="M25.51,47.3567a4.9312,4.9312,0,1,1-4.9311,4.9312A4.9311,4.9311,0,0,1,25.51,47.3567Z"/><path class="b" d="M25.51,46.3567a5.9317,5.9317,0,1,1-4.1938,1.7373A5.9133,5.9133,0,0,1,25.51,46.3567Zm2.78,3.1512a3.9322,3.9322,0,1,0,1.1512,2.78A3.92,3.92,0,0,0,28.2894,49.5079Z"/><circle class="f" cx="44.524" cy="47.126" r="19.5001"/><path class="b" d="M44.524,26.6258A20.5012,20.5012,0,1,1,30.0285,32.63,20.4365,20.4365,0,0,1,44.524,26.6258Zm13.0816,7.4186A18.5,18.5,0,1,0,63.0241,47.126,18.4419,18.4419,0,0,0,57.6056,34.0444Z"/><path class="b" d="M36.18,49.7565a2.5314,2.5314,0,1,1-2.5314,2.5314A2.5313,2.5313,0,0,1,36.18,49.7565Z"/><path class="b" d="M52.8675,49.7565a2.5314,2.5314,0,1,1-2.5313,2.5314A2.5313,2.5313,0,0,1,52.8675,49.7565Z"/><path class="c" d="M64.7739,36.6392l.75,6.9h-15.04a14.938,14.938,0,0,0,.7052-4.6034c0-5.6744-2.984-10.2748-6.6648-10.2748s-6.6648,4.6-6.6648,10.2748a14.938,14.938,0,0,0,.7053,4.6034H23.5238l3-14.1,13.95-6.45,11.25.3,10.35,5.7Z"/><path class="b" d="M63.4158,42.539a1,1,0,1,1,0,2H50.4836a1,1,0,0,1-.9312-1.3649,13.214,13.214,0,0,0,.47-2.0194,14.6592,14.6592,0,0,0,.1667-2.2192,12.5105,12.5105,0,0,0-1.7881-6.7221,4.8471,4.8471,0,0,0-3.8767-2.5526,4.847,4.847,0,0,0-3.8766,2.5526,12.5105,12.5105,0,0,0-1.7881,6.7221,14.6592,14.6592,0,0,0,.1667,2.2192,13.1539,13.1539,0,0,0,.4878,2.0755.9984.9984,0,0,1-.9493,1.3071v.0017H25.3156a1,1,0,0,1,0-2H37.2551q-.121-.5332-.206-1.0871a16.6442,16.6442,0,0,1-.19-2.5163,14.5219,14.5219,0,0,1,2.1164-7.8084,6.76,6.76,0,0,1,5.5485-3.4664,6.76,6.76,0,0,1,5.5486,3.4664,14.5219,14.5219,0,0,1,2.1163,7.8084,16.6444,16.6444,0,0,1-.19,2.5163q-.0846.5532-.2061,1.0871Z"/><path class="b" d="M57.76,43.8727a.9976.9976,0,0,1-1.7813-.8986,12.6055,12.6055,0,0,0-2.3955-14.6478,12.906,12.906,0,0,0-18.1191,0,12.5979,12.5979,0,0,0-2.3956,14.6478.9975.9975,0,0,1-1.7812.8986,14.5764,14.5764,0,0,1,2.77-16.96,14.886,14.886,0,0,1,20.9321,0,14.56,14.56,0,0,1,2.77,16.96Z"/><path class="b" d="M64.5015,44.1289a.9978.9978,0,1,1-1.6095-1.18,9.623,9.623,0,0,0,1.77-5.6874,11.548,11.548,0,0,0-1.3056-5.28,13.7076,13.7076,0,0,0-4.1624-4.77c-3.26-2.3823-8.0665-3.99-14.67-3.99s-11.41,1.6081-14.6693,3.99a13.7025,13.7025,0,0,0-4.1624,4.77,11.548,11.548,0,0,0-1.3056,5.28h-.004a9.6236,9.6236,0,0,0,1.7734,5.6874.9978.9978,0,1,1-1.6095,1.18,11.62,11.62,0,0,1-2.156-6.8672h-.004a13.5478,13.5478,0,0,1,1.5324-6.194,15.68,15.68,0,0,1,4.756-5.4655c3.5784-2.6155,8.7837-4.3809,15.849-4.3809s12.2706,1.7654,15.8494,4.3809a15.6858,15.6858,0,0,1,4.756,5.4655,13.5491,13.5491,0,0,1,1.5324,6.194A11.6228,11.6228,0,0,1,64.5015,44.1289Z"/><path class="h" d="M36.883,60.65a.8672.8672,0,1,1-.8672.8671A.8673.8673,0,0,1,36.883,60.65Z"/><path class="h" d="M36.883,57.79a.8671.8671,0,1,1-.8672.8671A.8673.8673,0,0,1,36.883,57.79Z"/><path class="h" d="M34.3051,58.9153a.8671.8671,0,1,1-.8671.8671A.8673.8673,0,0,1,34.3051,58.9153Z"/><path class="h" d="M34.3051,56.056a.8671.8671,0,1,1-.8671.8671A.8673.8673,0,0,1,34.3051,56.056Z"/><path class="h" d="M31.5864,56.5245a.8672.8672,0,1,1-.8671.8672A.8673.8673,0,0,1,31.5864,56.5245Z"/><path class="h" d="M52.1651,60.65a.8672.8672,0,1,0,.8671.8671A.8673.8673,0,0,0,52.1651,60.65Z"/><circle class="i" cx="52.1651" cy="58.6573" r="0.8671"/><circle class="i" cx="54.7429" cy="59.7824" r="0.8671"/><circle class="i" cx="54.7429" cy="56.9231" r="0.8671"/><path class="h" d="M57.4616,56.5245a.8672.8672,0,1,0,.8672.8672A.8674.8674,0,0,0,57.4616,56.5245Z"/></svg>