<svg width="89.0481px" height="89.0481px" viewBox="0 0 89.0481 89.0481" xmlns="http://www.w3.org/2000/svg"><defs><style>.a{fill:#d1d3d4;}.b{fill:#231f20;}.b,.c,.e,.f{fill-rule:evenodd;}.c{fill:#f5ee9b;}.d,.e{fill:#c7806f;}.f,.g{fill:#fff;}</style></defs><circle class="a" cx="44.524" cy="44.5241" r="43.524"/><path class="b" d="M44.524,0A44.5249,44.5249,0,1,1,13.041,13.0411,44.3854,44.3854,0,0,1,44.524,0ZM74.5931,14.455A42.5243,42.5243,0,1,0,87.048,44.5241,42.3922,42.3922,0,0,0,74.5931,14.455Z"/><path class="b" d="M36.2214,65.7436l1.108-8.742v7.0313H52.61l.2168,1.7107c6.0741,6.0721,10.1177,9.8283,20.2414,5.6662-5.571-3.0464-5.7946-6.605-2.0645-11.64,4.3084-5.815-.1644-11.8278-2.32-13.7818,3.1926-.7222,4.53-8.5637-2.3406-11.3694,2.2686-.3853,2.9534-12.3356-8.5363-17.18-7.2569-3.0589-19.2345-3.18-26.7613.087-11.283,4.898-10.5948,16.71-8.34,17.0935-6.87,2.8057-5.5332,10.6472-2.3406,11.3694-2.156,1.954-6.6288,7.9668-2.32,13.7818,3.73,5.0346,3.5064,8.5932-2.0645,11.64C26.1037,75.5719,30.1473,71.8157,36.2214,65.7436Z"/><path class="b" d="M35.276,65.2785l1.065-8.4019a.9963.9963,0,0,1,1.9848.125H38.33v6.0313H52.61a1,1,0,0,1,.9992.9592l.163,1.2864c2.8482,2.8423,5.2489,5.1327,8.0161,6.2062,2.4207.9391,5.2256.9813,9.04-.3A7.1529,7.1529,0,0,1,67.56,66.4841c-.3288-2.1856.616-4.572,2.6433-7.3078A7.5787,7.5787,0,0,0,71.6992,53.22a12.237,12.237,0,0,0-3.6842-6.4927.9957.9957,0,0,1,.45-1.71l0-.0014a1.9157,1.9157,0,0,0,1.0982-.8671,4.8149,4.8149,0,0,0,.7313-2.45,5.9892,5.9892,0,0,0-.6823-3.0331,6.9051,6.9051,0,0,0-3.6439-3.1246.9952.9952,0,0,1,.2114-1.9035l-.0005-.0028c.0334-.0057-.0253-.0309.02-.1023a5.4459,5.4459,0,0,0,.4909-2.84,12.6809,12.6809,0,0,0-1.142-4.748A14.9264,14.9264,0,0,0,57.42,18.3566a34.7673,34.7673,0,0,0-13.0762-2.25A33.8245,33.8245,0,0,0,31.44,18.44a14.87,14.87,0,0,0-7.9546,7.5391A12.657,12.657,0,0,0,22.358,30.73a5.3361,5.3361,0,0,0,.5,2.81c.0439.0675-.0258.0887.0119.095a.9981.9981,0,0,1,.1451,1.9335,6.88,6.88,0,0,0-3.5781,3.0971,5.99,5.99,0,0,0-.6823,3.0334,4.8124,4.8124,0,0,0,.7313,2.45,1.917,1.917,0,0,0,1.0982.8671.9971.9971,0,0,1,.4169,1.741,12.232,12.232,0,0,0-3.6518,6.463,7.5783,7.5783,0,0,0,1.4964,5.9567c2.0267,2.7358,2.9721,5.1222,2.6433,7.3078a7.1551,7.1551,0,0,1-3.27,4.7009c3.8151,1.281,6.62,1.2388,9.0408.3,2.7672-1.0735,5.1679-3.3639,8.0161-6.2062Zm2.04-.2458-.1009.7963a.9942.9942,0,0,1-.29.6216c-3.1184,3.117-5.72,5.6421-8.9458,6.8936-3.2726,1.27-7.0464,1.1792-12.3778-1.0126l0,0a.996.996,0,0,1-.0978-1.7963c2.4866-1.36,3.7715-2.7743,4.0082-4.3478.2429-1.6135-.5652-3.5246-2.268-5.8229A9.5056,9.5056,0,0,1,15.38,52.8914,14.02,14.02,0,0,1,18.72,46.25a4.5431,4.5431,0,0,1-.8907-.9922,6.8306,6.8306,0,0,1-1.0669-3.4812,7.978,7.978,0,0,1,.9085-4.0413,8.4819,8.4819,0,0,1,3.3446-3.3971,7.8621,7.8621,0,0,1-.6494-3.6629,14.675,14.675,0,0,1,1.2988-5.5091,16.8335,16.8335,0,0,1,8.9858-8.555A35.8472,35.8472,0,0,1,44.3435,14.114,36.7676,36.7676,0,0,1,58.193,16.52a16.8845,16.8845,0,0,1,9.1752,8.6037,14.7223,14.7223,0,0,1,1.3138,5.514,7.8818,7.8818,0,0,1-.6511,3.6989,8.4835,8.4835,0,0,1,3.3466,3.3987,7.9762,7.9762,0,0,1,.9085,4.0411,6.8326,6.8326,0,0,1-1.067,3.4812,4.5478,4.5478,0,0,1-.8906.9922,14.02,14.02,0,0,1,3.34,6.6413,9.5063,9.5063,0,0,1-1.8638,7.4727c-1.7028,2.298-2.5109,4.2094-2.268,5.8229.2361,1.57,1.5165,2.9823,3.994,4.34a.9964.9964,0,0,1-.0833,1.8045c-5.3314,2.1918-9.1052,2.2822-12.3778,1.0126-3.2258-1.2515-5.8275-3.7766-8.9459-6.8936l.0009-.0008a.9922.9922,0,0,1-.286-.5811l-.106-.8357H37.3294Z"/><path class="c" d="M64.0851,83.3771a43.5732,43.5732,0,0,1-39.1221,0c-.0516-.5808-.08-1.1678-.08-1.762a19.6407,19.6407,0,1,1,39.2814,0C64.1647,82.2093,64.1367,82.7963,64.0851,83.3771Z"/><path class="b" d="M64.5344,84.2678a44.4681,44.4681,0,0,1-40.0207,0,.9969.9969,0,0,1-.5479-.866c-.0258-.2991-.0457-.5856-.0581-.8575-.0159-.35-.0244-.6624-.0244-.9292a20.6408,20.6408,0,0,1,41.2815,0c0,.2668-.0085.5788-.0244.9292-.0133.29-.0349.5976-.0632.9187a.9951.9951,0,0,1-.5437.8031l.0009.0017ZM54.36,85.87a42.2274,42.2274,0,0,0,8.7738-3.1348l.0144-.2773c.0105-.2364.0165-.5159.0165-.843a18.6407,18.6407,0,1,0-37.2813,0c0,.3271.006.6066.0164.843l.0145.2773A42.6866,42.6866,0,0,0,54.36,85.87Z"/><circle class="d" cx="44.524" cy="66.439" r="7.8846" transform="translate(-21.9478 21.964) rotate(-22.3863)"/><path class="b" d="M44.524,57.5544a8.8853,8.8853,0,1,1-6.2821,2.6024,8.8567,8.8567,0,0,1,6.2821-2.6024Zm4.8683,4.0164a6.8853,6.8853,0,1,0,2.0162,4.8682A6.8633,6.8633,0,0,0,49.3923,61.5708Z"/><path class="e" d="M63.5386,47.3567a4.9312,4.9312,0,1,1-4.9312,4.9312A4.931,4.931,0,0,1,63.5386,47.3567Z"/><path class="b" d="M63.5386,46.3567a5.9317,5.9317,0,1,1-4.1939,1.7373,5.9132,5.9132,0,0,1,4.1939-1.7373Zm2.78,3.1512a3.9324,3.9324,0,1,0,1.1511,2.78A3.92,3.92,0,0,0,66.3185,49.5079Z"/><path class="e" d="M25.51,47.3567a4.9312,4.9312,0,1,1-4.9311,4.9312A4.931,4.931,0,0,1,25.51,47.3567Z"/><path class="b" d="M25.51,46.3567a5.9317,5.9317,0,1,1-4.1938,1.7373A5.9133,5.9133,0,0,1,25.51,46.3567Zm2.78,3.1512a3.9324,3.9324,0,1,0,1.1511,2.78A3.92,3.92,0,0,0,28.29,49.5079Z"/><circle class="d" cx="44.524" cy="47.126" r="19.5001"/><path class="b" d="M44.524,26.6258A20.5012,20.5012,0,1,1,30.0285,32.63,20.4369,20.4369,0,0,1,44.524,26.6258Zm13.0816,7.4186A18.5,18.5,0,1,0,63.0241,47.126,18.4428,18.4428,0,0,0,57.6056,34.0444Z"/><path class="b" d="M36.18,49.7565a2.5314,2.5314,0,1,1-2.5314,2.5314A2.5313,2.5313,0,0,1,36.18,49.7565Z"/><path class="b" d="M52.8675,49.7565a2.5314,2.5314,0,1,1-2.5313,2.5314A2.5313,2.5313,0,0,1,52.8675,49.7565Z"/><path class="f" d="M26.1113,57.0059a2.1382,2.1382,0,1,1-2.1382,2.1381A2.1385,2.1385,0,0,1,26.1113,57.0059Z"/><path class="b" d="M26.1113,56.0058a3.129,3.129,0,0,1,2.2167.9215l.002-.0019a3.1377,3.1377,0,1,1-4.4374,4.4373c-.0215-.0215-.0416-.0436-.0609-.0666a3.127,3.127,0,0,1,.0609-4.3671l.002-.0017.0017-.0019.002-.002a3.1264,3.1264,0,0,1,2.213-.9176Zm.8048,2.33a1.147,1.147,0,0,0-1.61,0l-.0037.0037a1.1474,1.1474,0,0,0-.034,1.5738l.0377.0357a1.1381,1.1381,0,0,0,1.61-1.6095l.002-.002Z"/><path class="f" d="M62.6553,57.0059a2.1382,2.1382,0,1,1-2.1382,2.1381A2.1385,2.1385,0,0,1,62.6553,57.0059Z"/><path class="b" d="M62.6553,56.0058a3.129,3.129,0,0,1,2.2167.9215l.002-.0019a3.1377,3.1377,0,1,1-4.4374,4.4373c-.0215-.0215-.0417-.0436-.0609-.0666a3.1268,3.1268,0,0,1,.0609-4.3671l.002-.0017.0017-.0019.002-.002a3.1263,3.1263,0,0,1,2.213-.9176Zm.8047,2.33a1.147,1.147,0,0,0-1.61,0l-.0037.0037a1.1477,1.1477,0,0,0-.034,1.5738l.0377.0357a1.1381,1.1381,0,1,0,1.61-1.6095l.002-.002Z"/><path class="b" d="M27.7693,26.2576c5.9825-4.3722,13.2126-4.66,16.1495-.6412A6.1758,6.1758,0,0,1,44.524,26.64a6.1828,6.1828,0,0,1,.6052-1.0233c2.9367-4.0184,10.1671-3.7312,16.15.6412S69.7306,37.4321,66.7939,41.45s-10.1671,3.7309-16.15-.6415a17.162,17.162,0,0,1-6.12-7.78,17.168,17.168,0,0,1-6.12,7.78c-5.9828,4.3718-13.2131,4.66-16.15.6412S21.7865,30.63,27.7693,26.2576Z"/><circle class="g" cx="26.1113" cy="64.2538" r="2.7292"/><path class="b" d="M26.1113,60.5245a3.7154,3.7154,0,0,1,2.6331,1.0925l.0017.002.002-.002a3.7238,3.7238,0,0,1,0,5.27l-.0037.0036a3.7238,3.7238,0,0,1-5.27,0q-.0306-.0306-.0584-.0634a3.7274,3.7274,0,0,1,2.6952-6.3026Zm1.2246,2.5047a1.7318,1.7318,0,0,0-2.4869,2.41l.0394.0374a1.7294,1.7294,0,0,0,2.4458-2.4457Z"/><circle class="g" cx="62.6553" cy="64.2538" r="2.7292"/><path class="b" d="M62.6553,60.5245a3.7154,3.7154,0,0,1,2.6331,1.0925l.0017.002.002-.002a3.724,3.724,0,0,1,0,5.27l-.0037.0036a3.7238,3.7238,0,0,1-5.27,0c-.02-.02-.04-.0416-.0584-.0634a3.7274,3.7274,0,0,1,2.6952-6.3026ZM63.88,63.0292a1.7318,1.7318,0,0,0-2.4868,2.41l.0394.0374a1.7294,1.7294,0,0,0,2.4457-2.4457Z"/></svg>