<svg width="89.0481px" height="89.0481px" viewBox="0 0 89.0481 89.0481" xmlns="http://www.w3.org/2000/svg"><defs><style>.a{fill:#fff685;}.b,.c{fill:#231f20;}.b,.d,.f,.g{fill-rule:evenodd;}.d{fill:#f58466;}.e,.f{fill:#d9b893;}.g{fill:#fff;}</style></defs><circle class="a" cx="44.524" cy="44.524" r="43.524"/><path class="b" d="M44.524,0A44.5248,44.5248,0,1,1,13.041,13.041,44.3853,44.3853,0,0,1,44.524,0ZM74.5931,14.455A42.5243,42.5243,0,1,0,87.048,44.524,42.3915,42.3915,0,0,0,74.5931,14.455Z"/><ellipse class="c" cx="25.1665" cy="36.0184" rx="7.0872" ry="6.6779"/><path class="b" d="M25.1665,28.3405A8.2877,8.2877,0,0,1,30.8616,30.57a7.4009,7.4009,0,0,1,0,10.897,8.3889,8.3889,0,0,1-11.39,0,7.4011,7.4011,0,0,1,0-10.897,8.2881,8.2881,0,0,1,5.6951-2.2294Zm4.3277,3.6825a6.4072,6.4072,0,0,0-8.6553,0,5.416,5.416,0,0,0,0,7.9908,6.4072,6.4072,0,0,0,8.6553,0,5.4163,5.4163,0,0,0,0-7.9908Z"/><path class="b" d="M63.8815,29.3405a6.8917,6.8917,0,0,1,7.0872,6.6779,7.1,7.1,0,0,1-14.1743,0A6.8914,6.8914,0,0,1,63.8815,29.3405Z"/><path class="b" d="M63.8815,28.3405A8.2877,8.2877,0,0,1,69.5766,30.57a7.4009,7.4009,0,0,1,0,10.897,8.3888,8.3888,0,0,1-11.39,0,7.4009,7.4009,0,0,1,0-10.897,8.2876,8.2876,0,0,1,5.695-2.2294Zm4.3277,3.6825a6.4072,6.4072,0,0,0-8.6553,0,5.416,5.416,0,0,0,0,7.9908,6.4072,6.4072,0,0,0,8.6553,0,5.416,5.416,0,0,0,0-7.9908Z"/><ellipse class="c" cx="68.1264" cy="46.2189" rx="8.6765" ry="8.1754"/><path class="b" d="M68.1264,39.0435a7.9269,7.9269,0,0,0-5.4516,2.1209,6.8537,6.8537,0,0,0,0,10.1089,8.0669,8.0669,0,0,0,10.9032,0,6.8537,6.8537,0,0,0,0-10.1089,7.9267,7.9267,0,0,0-5.4516-2.1209Zm-6.819.6679a10.0482,10.0482,0,0,1,13.638,0,8.8382,8.8382,0,0,1,0,13.015,10.0484,10.0484,0,0,1-13.638,0,8.8384,8.8384,0,0,1,0-13.015Z"/><ellipse class="c" cx="62.1416" cy="55.0686" rx="8.6765" ry="8.1754"/><path class="b" d="M62.1416,47.8933A7.9269,7.9269,0,0,0,56.69,50.0142a6.8537,6.8537,0,0,0,0,10.1089,8.0669,8.0669,0,0,0,10.9032,0,6.8537,6.8537,0,0,0,0-10.1089,7.9266,7.9266,0,0,0-5.4516-2.1209Zm-6.819.6678a10.0486,10.0486,0,0,1,13.6381,0,8.8384,8.8384,0,0,1,0,13.015,10.0483,10.0483,0,0,1-13.6381,0,8.8384,8.8384,0,0,1,0-13.015Z"/><ellipse class="c" cx="20.9216" cy="46.2189" rx="8.6766" ry="8.1754"/><path class="b" d="M20.9216,37.0434a9.9213,9.9213,0,0,1,6.8191,2.668,8.8384,8.8384,0,0,1,0,13.015,10.0486,10.0486,0,0,1-13.6381,0,8.8384,8.8384,0,0,1,0-13.015,9.9212,9.9212,0,0,1,6.819-2.668Zm5.4516,4.121a8.0669,8.0669,0,0,0-10.9032,0,6.8537,6.8537,0,0,0,0,10.1089,8.0669,8.0669,0,0,0,10.9032,0,6.8537,6.8537,0,0,0,0-10.1089Z"/><ellipse class="c" cx="26.9064" cy="55.0686" rx="8.6766" ry="8.1754"/><path class="b" d="M26.9064,45.8932a9.9212,9.9212,0,0,1,6.819,2.6679,8.8382,8.8382,0,0,1,0,13.015,10.0482,10.0482,0,0,1-13.638,0,8.8384,8.8384,0,0,1,0-13.015,9.9216,9.9216,0,0,1,6.819-2.6679Zm5.4516,4.121a8.0669,8.0669,0,0,0-10.9032,0,6.8537,6.8537,0,0,0,0,10.1089,8.0669,8.0669,0,0,0,10.9032,0,6.8537,6.8537,0,0,0,0-10.1089Z"/><ellipse class="c" cx="44.524" cy="37.9233" rx="21.9688" ry="20.7"/><path class="b" d="M44.524,16.2232A23.5934,23.5934,0,0,1,60.7422,22.56a20.8585,20.8585,0,0,1,0,30.7276,23.9241,23.9241,0,0,1-32.4363,0,20.8585,20.8585,0,0,1,0-30.7276A23.593,23.593,0,0,1,44.524,16.2232Zm14.8507,7.7893a21.9424,21.9424,0,0,0-29.7014,0,18.8737,18.8737,0,0,0,0,27.8215,21.9424,21.9424,0,0,0,29.7014,0,18.8735,18.8735,0,0,0,0-27.8215Z"/><path class="d" d="M64.0851,83.3771a43.5732,43.5732,0,0,1-39.1221,0c-.0516-.5808-.08-1.1679-.08-1.762a19.6407,19.6407,0,1,1,39.2814,0C64.1647,82.2092,64.1367,82.7963,64.0851,83.3771Z"/><path class="b" d="M64.5344,84.2677a44.467,44.467,0,0,1-40.0207,0,.9975.9975,0,0,1-.5479-.8659c-.0258-.2988-.0457-.5854-.0581-.8575-.0159-.35-.0244-.6625-.0244-.9292a20.6408,20.6408,0,0,1,41.2815,0c0,.2667-.0085.5788-.0244.9292-.0133.29-.0349.5978-.0632.9187a.9952.9952,0,0,1-.5437.803l.0009.0017ZM54.36,85.87a42.2276,42.2276,0,0,0,8.7738-3.1349l.0144-.2772c.0105-.2364.0165-.5159.0165-.843a18.6407,18.6407,0,1,0-37.2813,0c0,.3271.006.6066.0164.843l.0145.2772A42.686,42.686,0,0,0,54.36,85.87Z"/><circle class="e" cx="44.524" cy="66.439" r="7.8845" transform="translate(-30.3895 94.4476) rotate(-76.6718)"/><path class="b" d="M44.524,57.5543a8.8855,8.8855,0,1,1-6.2821,2.6025,8.8568,8.8568,0,0,1,6.2821-2.6025Zm4.8683,4.0164a6.8855,6.8855,0,1,0,2.0162,4.8683A6.8636,6.8636,0,0,0,49.3923,61.5707Z"/><path class="f" d="M63.5386,47.3567a4.9312,4.9312,0,1,1-4.9312,4.9311A4.9309,4.9309,0,0,1,63.5386,47.3567Z"/><path class="b" d="M63.5386,46.3566a5.9319,5.9319,0,1,1-4.1939,1.7374,5.9133,5.9133,0,0,1,4.1939-1.7374Zm2.78,3.1513a3.9324,3.9324,0,1,0,1.1511,2.78A3.92,3.92,0,0,0,66.3185,49.5079Z"/><path class="f" d="M25.51,47.3567a4.9312,4.9312,0,1,1-4.9311,4.9311A4.931,4.931,0,0,1,25.51,47.3567Z"/><path class="b" d="M25.51,46.3566a5.9319,5.9319,0,1,1-4.1938,1.7374A5.9134,5.9134,0,0,1,25.51,46.3566Zm2.78,3.1513a3.9322,3.9322,0,1,0,1.1512,2.78A3.92,3.92,0,0,0,28.2894,49.5079Z"/><circle class="e" cx="44.524" cy="47.126" r="19.5001"/><path class="b" d="M44.524,26.6258A20.501,20.501,0,1,1,30.0285,32.63,20.4364,20.4364,0,0,1,44.524,26.6258Zm13.0816,7.4185A18.5,18.5,0,1,0,63.0241,47.126,18.4424,18.4424,0,0,0,57.6056,34.0443Z"/><path class="b" d="M36.18,49.7565a2.5314,2.5314,0,1,1-2.5314,2.5313A2.5313,2.5313,0,0,1,36.18,49.7565Z"/><path class="b" d="M52.8675,49.7565a2.5314,2.5314,0,1,1-2.5313,2.5313A2.5313,2.5313,0,0,1,52.8675,49.7565Z"/><path class="b" d="M30.3151,29.198,25.44,40.4481c11.6906.45,16.7017-2.72,22.1252-10.65a8.8232,8.8232,0,0,1-.9,10.5c2.6044-.1659,6.2906-2.3449,9.0158-5.3538.6276,1.19.7353,5.0011-.6517,7.4177,4.5012-1.3026,5.9605-4.379,7.1252-6.2255a1.1559,1.1559,0,0,0-.2251-.8249l-3.3749-5.5876-3.189-3.2258-11.85-3.6-5.85,2.1Z"/><path class="b" d="M31.0946,29.9029,26.94,39.4891c4.9051.0581,8.51-.612,11.4588-2.1143,3.2216-1.64,5.7237-4.3115,8.3415-8.1394a.9984.9984,0,0,1,1.6994.0822l0,.0008a10.7887,10.7887,0,0,1,1.4,6.0914,9.287,9.287,0,0,1-.9028,3.2754,13.9546,13.9546,0,0,0,1.6906-.8626,19.1079,19.1079,0,0,0,4.3143-3.5467.9961.9961,0,0,1,1.62.2041l.0017-.0008a8.8492,8.8492,0,0,1,.51,4.2749,12.2253,12.2253,0,0,1-.2985,1.83,10.8807,10.8807,0,0,0,4.1706-4.383l.1732-.2851-.0125-.0244-.0394-.0751-3.3106-5.4808-2.9248-2.9585-11.2909-3.43L38.1,25.9l-7.005,4.0025Zm-6.569,10.1506L29.37,28.8757a.9942.9942,0,0,1,.4493-.5449L37.17,24.1333a1.0088,1.0088,0,0,1,.1587-.0729l5.8394-2.0962a.9911.9911,0,0,1,.6358-.02L55.61,25.5311l3.6107,3.4483a.9847.9847,0,0,1,.1891.2288l3.3749,5.5876.0882.1661a1.6954,1.6954,0,0,1,.2815,1.1744c-.0009,0-.1307.491-.1562.5312-.1661.2637-.3107.5213-.4054.6775a11.63,11.63,0,0,1-7.21,5.9508.9989.9989,0,0,1-1.2212-1.43,8.2132,8.2132,0,0,0,.92-3.2834,11.1814,11.1814,0,0,0,.0277-1.6469,20.7851,20.7851,0,0,1-3.4656,2.6062A11.6818,11.6818,0,0,1,46.781,41.29a.9992.9992,0,0,1-.8663-1.6526,7.5677,7.5677,0,0,0,1.9332-4.3917,8.2248,8.2248,0,0,0-.4733-3.4512,23.0164,23.0164,0,0,1-8.0689,7.3613c-3.5478,1.8071-7.8757,2.52-13.9011,2.2881v-.0009a.9959.9959,0,0,1-.879-1.39Z"/><path class="g" d="M44.524,17.2233a22.1666,22.1666,0,0,1,19.461,11.09,144.9092,144.9092,0,0,0-38.9219,0A22.1664,22.1664,0,0,1,44.524,17.2233Z"/><path class="b" d="M44.524,16.2232A23.8712,23.8712,0,0,1,56.3663,19.33a22.3764,22.3764,0,0,1,8.49,8.4985.9968.9968,0,0,1-1,1.4729,146.5133,146.5133,0,0,0-19.332-1.3051,142.5406,142.5406,0,0,0-19.328,1.3051.9974.9974,0,0,1-.9848-1.5072,22.38,22.38,0,0,1,8.47-8.4642A23.8715,23.8715,0,0,1,44.524,16.2232Zm10.8581,4.841a22.1706,22.1706,0,0,0-21.7162,0,20.575,20.575,0,0,0-6.6348,5.99,144.4958,144.4958,0,0,1,17.4929-1.05A148.0359,148.0359,0,0,1,62.0209,27.06,20.5682,20.5682,0,0,0,55.3821,21.0642Z"/></svg>