<svg width="89.0482px" height="89.0482px" viewBox="0 0 89.0482 89.0482" xmlns="http://www.w3.org/2000/svg"><defs><style>.a{fill:#a5c3d2;}.b{fill:#231f20;}.b,.c,.d,.f{fill-rule:evenodd;}.c{fill:#806b64;}.d{fill:#f0afcf;}.e,.f{fill:#f9ddd1;}</style></defs><circle class="a" cx="44.5241" cy="44.5241" r="43.524"/><path class="b" d="M44.5241,0a44.5251,44.5251,0,1,1-31.483,13.0411A44.3855,44.3855,0,0,1,44.5241,0Zm30.069,14.455A42.5244,42.5244,0,1,0,87.048,44.5241,42.3915,42.3915,0,0,0,74.5931,14.455Z"/><path class="c" d="M78.9174,32.7538c3.1765,5.48-3.58,13.4059-11.9736,7.7573C58.52,34.8429,55.6526,27.0842,58.8773,23.6274c3.0231-3.2409,11.7462-2.7709,13.1635,4.1218.4836,2.3528.2594,6.287,2.46,7.6964C75.4532,36.055,77.8167,35.4093,78.9174,32.7538Z"/><path class="b" d="M79.8,32.2872a6.9747,6.9747,0,0,1,.5763,5.6186,7.8968,7.8968,0,0,1-2.2178,3.4489,8.027,8.027,0,0,1-3.8733,1.942,10.4615,10.4615,0,0,1-7.8959-1.9573,30.356,30.356,0,0,1-3.76-2.9719,20.1315,20.1315,0,0,1-5.4272-7.8117c-.9275-2.6728-.8042-5.13.4037-6.9253a5.4623,5.4623,0,0,1,.5411-.6829,7.4047,7.4047,0,0,1,3.9385-2.05,10.4006,10.4006,0,0,1,4.4007.0621,8.93,8.93,0,0,1,4.0848,2.1251A8.247,8.247,0,0,1,73.0174,27.55c.1309.6383.2092,1.33.2911,2.0557.22,1.9513.4728,4.1938,1.7319,5l.0068.0045.0188.0077a1.4424,1.4424,0,0,0,1.0221-.1316A3.4624,3.4624,0,0,0,77.6,33.1351l.0307-.0448a5.0056,5.0056,0,0,0,.3651-.7195A.9982.9982,0,0,1,79.8,32.2872Zm-1.33,5.025a5.1855,5.1855,0,0,0,.1976-2.2952,5.2223,5.2223,0,0,1-1.7977,1.3056,3.3928,3.3928,0,0,1-2.5694.1389,2.0584,2.0584,0,0,1-.2636-.1326c-.0252-.0134-.05-.0278-.0743-.0434-2.0579-1.3175-2.3683-4.068-2.6379-6.461-.0782-.6942-.153-1.3558-.26-1.876a6.2753,6.2753,0,0,0-1.853-3.403,6.9445,6.9445,0,0,0-3.1782-1.64,8.39,8.39,0,0,0-3.5493-.0547,5.4122,5.4122,0,0,0-2.876,1.4567,3.5109,3.5109,0,0,0-.3456.4329c-.8481,1.2605-.8963,3.0954-.1774,5.1673a18.1412,18.1412,0,0,0,4.9039,6.9993,28.3511,28.3511,0,0,0,3.51,2.7762,8.5331,8.5331,0,0,0,6.4037,1.6529,6.0316,6.0316,0,0,0,2.9123-1.4579A5.88,5.88,0,0,0,78.47,37.3122Z"/><path class="d" d="M52.8548,25.5887c-3.6184,2.4386-4.1868,7.9245-1.2693,12.2527s8.2153,5.86,11.834,3.4212S67.6063,33.338,64.6889,29.01,56.4735,23.15,52.8548,25.5887Z"/><path class="b" d="M53.4132,26.4172a6.3067,6.3067,0,0,0-2.6518,4.6908,9.4252,9.4252,0,0,0,1.6521,6.1742l.0005.0008a9.4245,9.4245,0,0,0,5.1027,3.85,6.3094,6.3094,0,0,0,5.3438-.6981l.0006-.0006a6.3059,6.3059,0,0,0,2.6518-4.6908,9.4246,9.4246,0,0,0-1.652-6.1741l-.0006-.0009a9.4252,9.4252,0,0,0-5.1026-3.85,6.3092,6.3092,0,0,0-5.3439.6982l-.0006.0005Zm-1.1174-1.6565,0,0,.0006-.0006a8.28,8.28,0,0,1,7.016-.9559,11.4254,11.4254,0,0,1,6.2051,4.6466l.0005.0009a11.427,11.427,0,0,1,1.98,7.4942A8.2766,8.2766,0,0,1,63.9788,42.09l-.0006.0005a8.279,8.279,0,0,1-7.016.9559A11.4247,11.4247,0,0,1,50.7572,38.4l-.0006-.0008a11.4272,11.4272,0,0,1-1.9794-7.4942,8.2766,8.2766,0,0,1,3.5183-6.1441l0,0Zm10.565,15.6736,0,0,0,0Zm1.1177,1.6563,0,0,0,0ZM53.4135,26.417l0,0Z"/><path class="c" d="M9.9009,32.7538c-3.1766,5.48,3.58,13.4059,11.9735,7.7573,8.4234-5.6682,11.2912-13.4269,8.0665-16.8837-3.0231-3.2409-11.7462-2.7709-13.1635,4.1218-.4836,2.3528-.2594,6.287-2.46,7.6964C13.3651,36.055,11.0015,35.4093,9.9009,32.7538Z"/><path class="b" d="M10.1512,35.017a5.1884,5.1884,0,0,0,.1975,2.2952,5.8812,5.8812,0,0,0,1.6549,2.5656,6.032,6.032,0,0,0,2.9123,1.4579A8.5334,8.5334,0,0,0,21.32,39.6828a28.3515,28.3515,0,0,0,3.51-2.7762,18.1416,18.1416,0,0,0,4.904-6.9993c.7188-2.0719.6706-3.9068-.1775-5.1673a3.51,3.51,0,0,0-.3455-.4329A5.4132,5.4132,0,0,0,26.3344,22.85a8.39,8.39,0,0,0-3.5492.0547,6.9445,6.9445,0,0,0-3.1782,1.64,6.2753,6.2753,0,0,0-1.853,3.403c-.1069.52-.1817,1.1818-.26,1.876-.27,2.393-.58,5.1435-2.6379,6.461-.0244.0156-.049.03-.0743.0434a2.0519,2.0519,0,0,1-.2636.1326,3.3926,3.3926,0,0,1-2.5693-.1389,5.2223,5.2223,0,0,1-1.7977-1.3056ZM8.4421,37.9058a6.9746,6.9746,0,0,1,.5763-5.6186.9983.9983,0,0,1,1.8043.0836,4.965,4.965,0,0,0,.3651.7195l.0306.0448A3.4624,3.4624,0,0,0,12.73,34.4863a1.4426,1.4426,0,0,0,1.0222.1316l.0187-.0077.0068-.0045c1.2591-.8062,1.512-3.0487,1.732-5,.0819-.726.16-1.4174.2911-2.0557a8.2457,8.2457,0,0,1,2.4466-4.4655,8.93,8.93,0,0,1,4.0847-2.1251,10.3962,10.3962,0,0,1,4.4008-.0621,7.404,7.404,0,0,1,3.9384,2.05,5.4722,5.4722,0,0,1,.5412.6829c1.2078,1.7955,1.3311,4.2525.4036,6.9253a20.13,20.13,0,0,1-5.4272,7.8117,30.3486,30.3486,0,0,1-3.76,2.9719,10.4614,10.4614,0,0,1-7.8959,1.9573,8.0271,8.0271,0,0,1-3.8732-1.942A7.897,7.897,0,0,1,8.4421,37.9058Z"/><path class="d" d="M35.9634,25.5887c3.6185,2.4386,4.1868,7.9245,1.2694,12.2527s-8.2154,5.86-11.8341,3.4212S21.2119,33.338,24.1294,29.01,32.3447,23.15,35.9634,25.5887Z"/><path class="b" d="M35.405,26.4172a6.3061,6.3061,0,0,1,2.6518,4.6908,9.4245,9.4245,0,0,1-1.652,6.1742l-.0006.0008a9.4247,9.4247,0,0,1-5.1026,3.85,6.31,6.31,0,0,1-5.3439-.6981l-.0006-.0006a6.3065,6.3065,0,0,1-2.6518-4.6908,9.4248,9.4248,0,0,1,1.6521-6.1741l0-.0009a9.425,9.425,0,0,1,5.1027-3.85,6.3091,6.3091,0,0,1,5.3438.6982l.0006.0005Zm1.1174-1.6565,0,0-.0006-.0006a8.28,8.28,0,0,0-7.016-.9559,11.4252,11.4252,0,0,0-6.205,4.6466l-.0006.0009a11.4269,11.4269,0,0,0-1.9794,7.4942A8.2762,8.2762,0,0,0,24.8394,42.09l.0006.0005a8.279,8.279,0,0,0,7.016.9559A11.425,11.425,0,0,0,38.0611,38.4l0-.0008a11.4273,11.4273,0,0,0,1.98-7.4942,8.277,8.277,0,0,0-3.5184-6.1441l0,0ZM25.9574,40.4343l0,0,0,0ZM24.84,42.0906l0,0,0,0ZM35.4047,26.417l0,0Z"/><path class="d" d="M64.0851,83.3772a43.5732,43.5732,0,0,1-39.1221,0c-.0516-.5808-.08-1.1679-.08-1.762a19.6407,19.6407,0,0,1,39.2814,0C64.1648,82.2093,64.1367,82.7964,64.0851,83.3772Z"/><path class="b" d="M64.5344,84.2678a44.467,44.467,0,0,1-40.0207,0,.9977.9977,0,0,1-.5479-.866c-.0258-.2987-.0456-.5853-.0581-.8574-.0159-.35-.0244-.6625-.0244-.9292a20.6408,20.6408,0,0,1,41.2815,0c0,.2667-.0085.5788-.0244.9292-.0133.2905-.0348.5978-.0632.9187a.995.995,0,0,1-.5437.803l.0009.0017ZM54.36,85.87a42.22,42.22,0,0,0,8.7738-3.1348l.0145-.2772c.01-.2364.0164-.5159.0164-.843a18.6407,18.6407,0,1,0-37.2813,0c0,.3271.006.6066.0165.843l.0144.2772A42.6847,42.6847,0,0,0,54.36,85.87Z"/><circle class="e" cx="44.5241" cy="66.439" r="7.8846" transform="translate(-30.3449 94.5668) rotate(-76.7629)"/><path class="b" d="M44.5241,57.5544a8.8855,8.8855,0,1,1-6.2822,2.6025,8.8564,8.8564,0,0,1,6.2822-2.6025Zm4.8682,4.0164a6.8852,6.8852,0,1,0,2.0163,4.8682A6.8635,6.8635,0,0,0,49.3923,61.5708Z"/><path class="f" d="M63.5386,47.3568a4.9312,4.9312,0,1,1-4.9312,4.9311A4.9309,4.9309,0,0,1,63.5386,47.3568Z"/><path class="b" d="M63.5386,46.3567a5.9317,5.9317,0,1,1-4.1939,1.7374,5.9131,5.9131,0,0,1,4.1939-1.7374Zm2.78,3.1513a3.9322,3.9322,0,1,0,1.1512,2.78A3.92,3.92,0,0,0,66.3185,49.508Z"/><path class="f" d="M25.51,47.3568a4.9312,4.9312,0,1,1-4.9311,4.9311A4.931,4.931,0,0,1,25.51,47.3568Z"/><path class="b" d="M25.51,46.3567a5.9319,5.9319,0,1,1-4.1938,1.7374A5.9134,5.9134,0,0,1,25.51,46.3567Zm2.78,3.1513a3.9324,3.9324,0,1,0,1.1511,2.78A3.92,3.92,0,0,0,28.29,49.508Z"/><circle class="e" cx="44.5241" cy="47.126" r="19.5001"/><path class="b" d="M44.5241,26.6259A20.501,20.501,0,1,1,30.0285,32.63a20.436,20.436,0,0,1,14.4956-6.0046Zm13.0816,7.4185A18.5006,18.5006,0,1,0,63.0241,47.126,18.4427,18.4427,0,0,0,57.6057,34.0444Z"/><path class="c" d="M59.9074,56.6782C71.6355,48.7063,64.5432,24.76,44.4662,24.8636c-19.5817.1-27.4422,22.9039-15.758,31.439-1.607-7.9594-2.7627-15.9463,3.15-19.8,0,3.0084,3.3939,3.7956,5.55,4.35-1.9114-1.6733-1.9579-5.4839-.9-5.85,4.0209,0,4.0994,3.5507,3.75,6.9,2.09-.3971,4.9023-4.7829,3.15-7.95,3.162-.099,5.1,5.5493,5.1,8.7,3.1518-1.15,2.9636-7.2664,1.8-8.55,4.2868-.4379,5.2945,5.5171,3.9,7.2,2.6214-.4124,3.3749-1.1613,3.75-3.9C60.1554,39.7143,63.6928,47.0685,59.9074,56.6782Z"/><path class="b" d="M61.9849,53.36a12.5044,12.5044,0,0,0,2.2031-4.7716,17.35,17.35,0,0,0-.6137-9.4337A19.4984,19.4984,0,0,0,44.47,25.86a20.469,20.469,0,0,0-13.1437,4.591,19.8362,19.8362,0,0,0-6.0035,8.5076,16.6254,16.6254,0,0,0-.6874,9.4691l.0009,0A12.36,12.36,0,0,0,27.16,53.5062a36.4862,36.4862,0,0,1-.6933-8.7134c.2707-3.77,1.5817-6.9973,4.8478-9.1258a.997.997,0,0,1,1.54.8359h.0031c0,1.3456,1.076,2.1274,2.3366,2.6405a7.313,7.313,0,0,1-.3725-2.4633,3.4821,3.4821,0,0,1,.6676-2.1439,1.6249,1.6249,0,0,1,.6939-.4748.9993.9993,0,0,1,.3243-.0544v-.0042c2.5279,0,3.83,1.1534,4.4515,2.85a8.8419,8.8419,0,0,1,.4238,3.1711,6.2627,6.2627,0,0,0,.951-1.4031,5.1392,5.1392,0,0,0,.5593-3.1868,3.3535,3.3535,0,0,0-.3606-1.0009.9985.9985,0,0,1,.9233-1.4777l.0181,0H43.49v-.004c1.9607,0,3.4772,1.5622,4.4969,3.5915a15.27,15.27,0,0,1,1.3357,4.1465,5.9006,5.9006,0,0,0,.7032-2.3026,7.5673,7.5673,0,0,0-.2542-3.2145,1.33,1.33,0,0,0-.2019-.4014.9955.9955,0,0,1,.6373-1.6585l0-.0017a4.5048,4.5048,0,0,1,3.4472,1.0023,5.5728,5.5728,0,0,1,1.4834,1.9984l0,.0015.0034-.0015a7.475,7.475,0,0,1,.6132,2.3063h0a6.7664,6.7664,0,0,1-.0039,1.442,1.7183,1.7183,0,0,0,.46-.33,4.05,4.05,0,0,0,.7591-2.26.9971.9971,0,0,1,1.7107-.5545l.0006,0a16.7738,16.7738,0,0,1,3.7859,9.4428,22.1364,22.1364,0,0,1-.4819,7.2017Zm4.1488-4.3186a13.8017,13.8017,0,0,1-5.6021,8.4164.9984.9984,0,0,1-1.554-1.1427,21.2057,21.2057,0,0,0,1.505-9.9612,16.5568,16.5568,0,0,0-2.0645-6.6405A3.7985,3.7985,0,0,1,57.64,40.92a5.36,5.36,0,0,1-3.2049,1.355.9988.9988,0,0,1-.9969-1.6092,3.0287,3.0287,0,0,0,.3319-2.0455h0l0-.0037a5.4256,5.4256,0,0,0-.45-1.6773l.0034-.0014a3.5913,3.5913,0,0,0-.9436-1.2861,2.4809,2.4809,0,0,0-.4992-.3223A10.524,10.524,0,0,1,52.01,38.621,6.6717,6.6717,0,0,1,50.1491,42.8a3.9435,3.9435,0,0,1-1.2177.76,1,1,0,0,1-1.4233-.9062v-.2254a12.8856,12.8856,0,0,0-1.3025-4.9941,6.5276,6.5276,0,0,0-1.2748-1.8181,7.3541,7.3541,0,0,1-.8152,3.8962,7.1265,7.1265,0,0,1-2.6711,2.9951,3.4186,3.4186,0,0,1-.9859.3733l-.0065.0014-.0105.002a.9981.9981,0,0,1-1.1758-1.082,10.3046,10.3046,0,0,0-.1817-4.2607,2.2832,2.2832,0,0,0-2.1779-1.5219,2.8437,2.8437,0,0,0-.0918.7157,5.297,5.297,0,0,0,.2894,1.838,3.5771,3.5771,0,0,0,.96,1.53l-.0006.0006a.9958.9958,0,0,1-.9017,1.7144l-.1743-.0448c-2.0081-.5142-4.8175-1.2342-5.7855-3.4892a9.7461,9.7461,0,0,0-2.7428,6.6495,43.8061,43.8061,0,0,0,1.2254,11.1739h-.0006a.9954.9954,0,0,1-1.5619,1,14.08,14.08,0,0,1-5.4235-8.2114l.0009,0-.0009-.0037a18.6111,18.6111,0,0,1,.7489-10.6135,21.8424,21.8424,0,0,1,6.613-9.3671,22.4351,22.4351,0,0,1,14.4017-5.0439A21.4936,21.4936,0,0,1,65.465,38.5138,19.352,19.352,0,0,1,66.1337,49.0411Z"/><path class="b" d="M36.18,49.7566a2.5314,2.5314,0,1,1-2.5314,2.5313A2.5313,2.5313,0,0,1,36.18,49.7566Z"/><path class="b" d="M52.8676,49.7566a2.5314,2.5314,0,1,1-2.5314,2.5313A2.5313,2.5313,0,0,1,52.8676,49.7566Z"/></svg>