<svg width="89.0481px" height="89.0481px" viewBox="0 0 89.0481 89.0481" xmlns="http://www.w3.org/2000/svg"><defs><style>.a{fill:#56c5d0;}.b{fill:#231f20;}.b,.c,.d,.f{fill-rule:evenodd;}.c{fill:#f58220;}.d{fill:#939598;}.e,.f{fill:#f9ddd1;}</style></defs><circle class="a" cx="44.5241" cy="44.5241" r="43.524"/><path class="b" d="M44.5241,0a44.5251,44.5251,0,1,1-31.483,13.0411A44.3855,44.3855,0,0,1,44.5241,0Zm30.069,14.455A42.5243,42.5243,0,1,0,87.048,44.5241,42.3922,42.3922,0,0,0,74.5931,14.455Z"/><path class="c" d="M67.0774,40.0513a22.5533,22.5533,0,0,1-45.1066,0c0-9.1985,3.8582-15.4015,10.4785-17.41C35.3307,12.8458,67.0774,14.7186,67.0774,40.0513Z"/><path class="b" d="M68.0774,40.0513a23.5534,23.5534,0,0,1-47.1067,0,22.8475,22.8475,0,0,1,2.8707-11.8664,14.3465,14.3465,0,0,1,7.8278-6.3391c1.0287-2.6076,3.82-4.4045,7.4432-5.21a23.9428,23.9428,0,0,1,9.3535-.0482,26.0044,26.0044,0,0,1,9.7053,3.8832c5.627,3.7624,9.9062,10.1032,9.9062,19.58Zm-8.3129,15.24a21.4871,21.4871,0,0,0,6.3128-15.24c0-8.701-3.8945-14.4995-9.0156-17.9238a23.9944,23.9944,0,0,0-8.9552-3.5787,21.9389,21.9389,0,0,0-8.5643.0329c-3.1572.7015-5.5089,2.209-6.1359,4.3409l-.0011,0a.9962.9962,0,0,1-.6667.6723,12.4184,12.4184,0,0,0-7.1861,5.6214,20.895,20.895,0,0,0-2.5816,10.8352,21.5533,21.5533,0,0,0,36.7937,15.24Z"/><path class="d" d="M64.0851,83.3771a43.5732,43.5732,0,0,1-39.1221,0c-.0516-.5808-.08-1.1678-.08-1.762a19.6407,19.6407,0,0,1,39.2814,0C64.1648,82.2093,64.1367,82.7963,64.0851,83.3771Z"/><path class="b" d="M64.5344,84.2678a44.4681,44.4681,0,0,1-40.0207,0,.9971.9971,0,0,1-.5479-.866c-.0258-.2991-.0456-.5856-.0581-.8575-.0159-.35-.0244-.6624-.0244-.9292a20.6408,20.6408,0,0,1,41.2815,0c0,.2668-.0085.5788-.0244.9292-.0133.29-.0348.5976-.0632.9187a.9951.9951,0,0,1-.5437.8031l.0009.0017ZM54.36,85.87a42.2253,42.2253,0,0,0,8.7738-3.1348l.0145-.2773c.01-.2364.0164-.5159.0164-.843a18.6407,18.6407,0,1,0-37.2813,0c0,.3271.006.6066.0165.843l.0144.2773A42.6866,42.6866,0,0,0,54.36,85.87Z"/><circle class="e" cx="44.5241" cy="66.439" r="7.8846" transform="translate(-28.189 99.7458) rotate(-80.7825)"/><path class="b" d="M44.5241,57.5544a8.8853,8.8853,0,1,1-6.2822,2.6024,8.8563,8.8563,0,0,1,6.2822-2.6024Zm4.8682,4.0164a6.8851,6.8851,0,1,0,2.0163,4.8682A6.863,6.863,0,0,0,49.3923,61.5708Z"/><path class="f" d="M63.5386,47.3567a4.9312,4.9312,0,1,1-4.9312,4.9312A4.931,4.931,0,0,1,63.5386,47.3567Z"/><path class="b" d="M63.5386,46.3567a5.9315,5.9315,0,1,1-4.1939,1.7373,5.9129,5.9129,0,0,1,4.1939-1.7373Zm2.78,3.1512a3.9322,3.9322,0,1,0,1.1512,2.78A3.92,3.92,0,0,0,66.3185,49.5079Z"/><path class="f" d="M25.51,47.3567a4.9312,4.9312,0,1,1-4.9311,4.9312A4.931,4.931,0,0,1,25.51,47.3567Z"/><path class="b" d="M25.51,46.3567a5.9317,5.9317,0,1,1-4.1938,1.7373A5.9133,5.9133,0,0,1,25.51,46.3567Zm2.78,3.1512a3.9324,3.9324,0,1,0,1.1511,2.78A3.92,3.92,0,0,0,28.29,49.5079Z"/><circle class="e" cx="44.5241" cy="47.126" r="19.5001"/><path class="b" d="M44.5241,26.6258A20.5012,20.5012,0,1,1,30.0285,32.63a20.4366,20.4366,0,0,1,14.4956-6.0047Zm13.0816,7.4186A18.5006,18.5006,0,1,0,63.0241,47.126,18.4428,18.4428,0,0,0,57.6057,34.0444Z"/><path class="b" d="M36.18,49.7565a2.5314,2.5314,0,1,1-2.5313,2.5314A2.5313,2.5313,0,0,1,36.18,49.7565Z"/><path class="b" d="M52.8676,49.7565a2.5314,2.5314,0,1,1-2.5314,2.5314A2.5313,2.5313,0,0,1,52.8676,49.7565Z"/><path class="c" d="M44.4359,57.2831c-3.9985-2.8749-3.7837,4.6258-9.5584.0383,1.2849,4,7.3329,6.2126,9.5584,2.9548,2.2255,3.2578,8.2735,1.0448,9.5584-2.9548C48.22,61.9089,48.3642,54.4782,44.4359,57.2831Z"/><path class="b" d="M43.8191,58.0671c-1.1415-.8-1.7958-.25-2.4993.3433a4.7715,4.7715,0,0,1-3.1017,1.5007,6.2926,6.2926,0,0,0,2.0132.8283A4.05,4.05,0,0,0,42.29,60.694a2.4919,2.4919,0,0,0,1.3218-.98.9985.9985,0,0,1,1.6591.0153,2.4914,2.4914,0,0,0,1.3113.9649,4.0467,4.0467,0,0,0,2.0585.0457,6.286,6.286,0,0,0,1.999-.82,4.82,4.82,0,0,1-3.13-1.4919c-.71-.59-1.3674-1.1373-2.495-.3322a.9983.9983,0,0,1-1.1951-.0287Zm-3.7806-1.18c1.2152-1.0239,2.3522-1.9806,4.3994-.7906,2.0027-1.1466,3.1326-.2075,4.3447.8.9669.8039,2.0239,1.6827,4.5907-.3566l.0005.0009a.997.997,0,0,1,1.57,1.0851,7.4587,7.4587,0,0,1-2.9461,3.7905,8.3641,8.3641,0,0,1-2.9432,1.2758,6.0257,6.0257,0,0,1-3.0818-.1,4.5245,4.5245,0,0,1-1.5367-.84,4.5327,4.5327,0,0,1-1.5366.84,6.026,6.026,0,0,1-3.0819.1,8.36,8.36,0,0,1-2.9432-1.2758,7.4757,7.4757,0,0,1-2.93-3.7418A.9982.9982,0,0,1,35.4986,56.54C38.0466,58.5643,39.0847,57.69,40.0385,56.8871Z"/><path class="c" d="M25.4911,53.5345l3.8245,0c-5.58-10.569,1.4338-19.5472,5.4746-21.0751,9.5224,10.6478,17.7267-3.0863,23.3912,1.9627,4.8824,4.3518,4.6491,13.608,1.43,19.1124l3.8245,0a21.5859,21.5859,0,0,0,1.718-6.4879,13.156,13.156,0,0,0-1.1449-8.8574l-1.0939-5.88c-12.33-7.2281-8.7454-7.5365-24.45-7.95l-8.85,3.9c-2.1756,6.6589-5.3567,10.0191-6.09,14.7626C23.1021,45.7642,23.2957,48.9821,25.4911,53.5345Z"/><path class="b" d="M21.3783,44.3523a.9981.9981,0,0,1,1.969-.3283c.0989.5939.2463,1.2161.4187,1.8539.1933.7163.3843,1.3459.576,1.9729.2741.8969.5918,1.8048.9362,2.6892.2668.6849.5517,1.3567.8468,1.9985l1.6072,0q-.1807-.4193-.3379-.8346A16.6231,16.6231,0,0,1,27.62,39.0025a14.9787,14.9787,0,0,1,6.067-7.1354,6.72,6.72,0,0,1,.752-.3416.9985.9985,0,0,1,1.1307.31c5.0791,5.6438,9.83,3.6924,13.9374,2.0052,3.4523-1.4181,6.52-2.6779,9.3387-.1652a13.4759,13.4759,0,0,1,4.05,9.2012,20.4884,20.4884,0,0,1-1.6549,9.6611l1.5642,0c.5762-1.2272,1.0794-2.4086,1.4944-3.5156a26.947,26.947,0,0,0,1.0593-3.4282.9972.9972,0,0,1,1.9457.4377,28.93,28.93,0,0,1-1.1375,3.6861c-.5074,1.3533-1.126,2.7848-1.8324,4.25l-.0014-.0008a.9962.9962,0,0,1-.8971.5632l-3.81,0a.9962.9962,0,0,1-.8742-1.5,17.9021,17.9021,0,0,0,2.1515-10.0046,11.52,11.52,0,0,0-3.3866-7.8577c-1.891-1.6855-4.4135-.6494-7.2524.5168-4.589,1.8856-9.8793,4.0575-15.7122-2.0174a12.9726,12.9726,0,0,0-5.1046,6.1242,14.669,14.669,0,0,0-.1862,11.2091,18.3508,18.3508,0,0,0,.9368,2.0687l-.0017.0008a.996.996,0,0,1-.8813,1.46l-3.7647,0a.9976.9976,0,0,1-.9584-.5624c-.4045-.839-.8019-1.7549-1.1738-2.7093-.3569-.9162-.69-1.8709-.9833-2.83-.22-.7195-.4363-1.431-.5993-2.0353C21.6516,45.71,21.4912,45.03,21.3783,44.3523Z"/><path class="b" d="M31.4342,22.4561a.9962.9962,0,1,1,1.9843.18,16.0008,16.0008,0,0,0,.5576,4.9824,14.9183,14.9183,0,0,0,1.8431,4.4938.9958.9958,0,0,1-1.6487,1.1174,16.911,16.911,0,0,1-2.1322-5.127A17.9861,17.9861,0,0,1,31.4342,22.4561Z"/></svg>